<svg width="97" height="30" viewBox="0 0 97 30" fill="none" xmlns="http://www.w3.org/2000/svg">
<g clip-path="url(#clip0_96_16)">
<path d="M27.7893 21.2615C27.6372 20.8959 27.4946 20.5115 27.3426 20.1834L26.6393 18.6178L26.6108 18.5897C24.5199 14.0897 22.2864 9.51466 19.9199 5.01466L19.8249 4.82716C19.5873 4.38653 19.3497 3.89903 19.1026 3.44903C18.7984 2.91466 18.5038 2.34278 18.0191 1.79903C17.5466 1.23009 16.952 0.771709 16.2782 0.456959C15.6043 0.142209 14.868 -0.0210571 14.1224 -0.0210571C13.3769 -0.0210571 12.6406 0.142209 11.9667 0.456959C11.2929 0.771709 10.6983 1.23009 10.2258 1.79903C9.77911 2.34278 9.44646 2.91466 9.14233 3.44903C8.90473 3.93653 8.66713 4.41466 8.42003 4.85528L8.32499 5.04278C5.9965 9.54278 3.72503 14.1178 1.63415 18.6178L1.57712 18.674C1.36803 19.1615 1.12093 19.6678 0.883326 20.2115C0.731261 20.5397 0.579197 20.8959 0.427132 21.2897C0.0165889 22.3207 -0.114511 23.4395 0.0467543 24.5357C0.208019 25.632 0.656082 26.6679 1.34679 27.5413C2.03749 28.4147 2.94699 29.0955 3.98566 29.5166C5.02432 29.9377 6.15631 30.0846 7.27004 29.9428C8.33779 29.8041 9.36594 29.4533 10.2923 28.9115C11.5278 28.2272 12.7159 27.2334 14.0464 25.799C15.377 27.2334 16.5935 28.2272 17.8005 28.9209C18.9612 29.593 20.2757 29.9639 21.6211 29.999C23.1792 30.0054 24.687 29.4555 25.8661 28.451C27.0452 27.4464 27.8161 26.0549 28.0364 24.5334C28.2909 23.4401 28.2048 22.2964 27.7893 21.2522V21.2615ZM14.1415 22.8178C12.5068 20.7553 11.4423 18.8615 11.0812 17.2397C10.9315 16.6387 10.8993 16.0151 10.9861 15.4022C11.0526 14.924 11.2332 14.5022 11.4803 14.1459C12.0506 13.3303 13.0485 12.824 14.1415 12.824C14.6605 12.8084 15.1754 12.9201 15.6398 13.1492C16.1043 13.3783 16.5038 13.7175 16.8026 14.1365C17.0497 14.5115 17.2303 14.924 17.2873 15.4022C17.3823 15.9459 17.3443 16.574 17.1923 17.2397C16.8311 18.8334 15.7666 20.7459 14.1415 22.8178ZM26.2496 24.2053C26.1416 24.9777 25.8303 25.7088 25.3468 26.3256C24.8632 26.9424 24.2242 27.4235 23.4934 27.7209C22.7711 28.0209 21.9728 28.1053 21.1935 28.0209C20.4331 27.9272 19.6728 27.6834 18.8935 27.2334C17.5995 26.4445 16.436 25.4643 15.4435 24.3272C17.4394 21.8897 18.6464 19.6678 19.1026 17.6897C19.3212 16.7522 19.3497 15.9084 19.2546 15.1303C19.136 14.3927 18.8571 13.6892 18.4373 13.0678C17.9579 12.394 17.318 11.8466 16.5739 11.4739C15.8299 11.1012 15.0043 10.9145 14.17 10.9303C12.4117 10.9303 10.8436 11.7365 9.89315 13.0584C9.46532 13.6782 9.18882 14.3874 9.08531 15.1303C8.96176 15.9178 8.99027 16.7897 9.23738 17.6897C9.69357 19.6678 10.9291 21.9178 12.8964 24.3459C11.9208 25.5048 10.7546 26.4936 9.44646 27.2709C8.65763 27.7209 7.90681 27.9553 7.14649 28.049C5.96407 28.1984 4.76967 27.8814 3.82289 27.167C2.87611 26.4525 2.25348 25.3982 2.09034 24.2334C1.9953 23.4834 2.06183 22.7334 2.36596 21.8897C2.461 21.5897 2.60356 21.2897 2.75562 20.9334C2.96471 20.4459 3.21182 19.9397 3.44942 19.4334L3.48743 19.3678C5.5403 14.8959 7.78326 10.3303 10.1117 5.85841L10.2068 5.67091C10.4444 5.22091 10.682 4.74278 10.9291 4.29278C11.1762 3.81466 11.4423 3.35528 11.7845 2.98028C12.0806 2.63155 12.4507 2.3511 12.8686 2.15867C13.2865 1.96625 13.742 1.86652 14.2032 1.86652C14.6644 1.86652 15.12 1.96625 15.5379 2.15867C15.9558 2.3511 16.3259 2.63155 16.622 2.98028C16.9547 3.35528 17.2303 3.81466 17.4774 4.29278C17.715 4.74278 17.9526 5.23028 18.1997 5.67091L18.2947 5.85841C20.6137 10.3303 22.8567 14.8959 24.9475 19.3678L24.9761 19.3959C25.2232 19.8834 25.4323 20.4272 25.6699 20.8959C25.8219 21.2615 25.974 21.5522 26.069 21.8615C26.2496 22.7053 26.3446 23.4553 26.2496 24.2053ZM39.4792 22.6115C38.7631 22.6219 38.0537 22.473 37.4038 22.176C36.754 21.879 36.1802 21.4415 35.7251 20.8959C34.7025 19.7334 34.1598 18.2344 34.2045 16.6959C34.1888 15.1239 34.7491 13.5992 35.7822 12.4022C36.26 11.8496 36.8549 11.4071 37.5248 11.1059C38.1948 10.8046 38.9235 10.6518 39.6598 10.6584C40.3526 10.6397 41.0388 10.7951 41.6539 11.11C42.2691 11.4249 42.793 11.8889 43.1763 12.4584L43.2713 10.9865H46.0465V22.3115H43.2618L43.1668 20.6615C42.7716 21.2697 42.2253 21.768 41.5799 22.1093C40.9345 22.4506 40.2114 22.6235 39.4792 22.6115ZM40.2015 19.9115C40.7528 19.9115 41.2375 19.7615 41.6937 19.4897C42.1118 19.1897 42.454 18.7959 42.7201 18.3178C42.9577 17.8397 43.0813 17.2678 43.0813 16.6303C43.1183 16.0766 43.009 15.5229 42.7642 15.0233C42.5193 14.5238 42.1471 14.0955 41.6842 13.7803C41.2393 13.5069 40.7257 13.3619 40.2015 13.3619C39.6774 13.3619 39.1638 13.5069 38.7189 13.7803C38.3007 14.0803 37.9586 14.474 37.6925 14.9522C37.4411 15.4794 37.3175 16.0571 37.3313 16.6397C37.2943 17.1933 37.4035 17.747 37.6484 18.2466C37.8933 18.7462 38.2654 19.1745 38.7284 19.4897C39.1751 19.7615 39.6598 19.9115 40.2015 19.9115ZM50.7985 7.93028C50.7985 8.25841 50.7415 8.55841 50.5894 8.80216C50.4374 9.03653 50.2283 9.25216 49.9527 9.40216C49.6771 9.55216 49.3824 9.60841 49.0783 9.60841C48.7742 9.60841 48.47 9.55216 48.1944 9.40216C47.9338 9.25901 47.7146 9.05246 47.5577 8.80216C47.4105 8.53509 47.3383 8.23409 47.3486 7.93028C47.3486 7.59278 47.4151 7.29278 47.5577 7.05841C47.7097 6.77716 47.9283 6.60841 48.1944 6.45841C48.47 6.30841 48.7647 6.24278 49.0783 6.24278C49.3808 6.23591 49.68 6.30658 49.9465 6.4479C50.2131 6.58922 50.4379 6.79635 50.5989 7.04903C50.7373 7.32236 50.8058 7.62488 50.7985 7.93028ZM47.5672 22.274V10.9678H50.5894V22.2928H47.5577L47.5672 22.274ZM58.6679 13.9303V13.9678C58.5253 13.9022 58.3352 13.874 58.1927 13.8459C58.0026 13.8084 57.8505 13.8084 57.6699 13.8084C56.8241 13.8084 56.1873 14.0522 55.7691 14.5584C55.313 15.074 55.1039 15.7959 55.1039 16.724V22.2834H52.0721V10.9584H54.8568L54.9518 12.674C55.2559 12.074 55.6171 11.624 56.1303 11.2865C56.6408 10.9586 57.2418 10.7948 57.8505 10.8178C58.0691 10.8178 58.2782 10.8365 58.4588 10.874C58.5538 10.9022 58.6108 10.9022 58.6679 10.9303V13.9303ZM59.8844 22.274V6.31778H62.9067V12.4115C63.3344 11.8678 63.8191 11.4459 64.4273 11.1178C65.3903 10.6521 66.4842 10.52 67.5326 10.7428C68.581 10.9656 69.5227 11.5304 70.2058 12.3459C71.2306 13.5108 71.7735 15.0136 71.7264 16.5553C71.7421 18.1273 71.1818 19.652 70.1488 20.849C69.6709 21.4016 69.076 21.8441 68.4061 22.1453C67.7361 22.4466 67.0074 22.5993 66.2711 22.5928C65.5783 22.6115 64.8921 22.4561 64.277 22.1412C63.6618 21.8263 63.1379 21.3623 62.7546 20.7928L62.6596 22.2647L59.8844 22.2928V22.274ZM65.7294 19.9115C66.2711 19.9115 66.7558 19.7615 67.212 19.4897C67.6302 19.1897 67.9723 18.7959 68.2384 18.3178C68.4855 17.8397 68.5996 17.2678 68.5996 16.6303C68.5996 16.0022 68.4855 15.4303 68.2384 14.9522C67.9889 14.4911 67.6382 14.0908 67.212 13.7803C66.7672 13.5069 66.2535 13.3619 65.7294 13.3619C65.2052 13.3619 64.6916 13.5069 64.2467 13.7803C63.8191 14.0803 63.4864 14.474 63.2108 14.9522C62.9595 15.4794 62.8358 16.0571 62.8497 16.6397C62.8126 17.1933 62.9219 17.747 63.1668 18.2466C63.4116 18.7462 63.7838 19.1745 64.2467 19.4897C64.6934 19.7615 65.1781 19.9115 65.7294 19.9115ZM72.8669 22.2834V10.9584H75.6516L75.7466 12.4303C76.0966 11.8661 76.593 11.4043 77.1845 11.0928C77.776 10.7813 78.4411 10.6313 79.1111 10.6584C79.8772 10.6454 80.6302 10.8554 81.2759 11.2623C81.9217 11.6691 82.4315 12.2548 82.7416 12.9459C83.0742 13.6584 83.2548 14.5397 83.2548 15.524V22.3115H80.223V15.9178C80.223 15.1303 80.0424 14.5115 79.6813 14.0522C79.3201 13.6022 78.8259 13.3584 78.1987 13.3584C77.7425 13.3584 77.3433 13.4522 76.9917 13.6584C76.659 13.874 76.3834 14.1459 76.1743 14.5303C75.9629 14.9188 75.8581 15.3551 75.8702 15.7959V22.2834H72.8669ZM84.766 22.2834V6.30841H87.7978V12.4022C88.2084 11.8554 88.7426 11.4105 89.358 11.103C89.9733 10.7954 90.6529 10.6336 91.3428 10.6303C92.0589 10.6199 92.7683 10.7688 93.4182 11.0658C94.068 11.3628 94.6418 11.8003 95.0968 12.3459C96.1144 13.5108 96.6534 15.0089 96.608 16.5459C96.6245 18.118 96.0642 19.643 95.0303 20.8397C94.5525 21.3922 93.9576 21.8347 93.2877 22.136C92.6177 22.4372 91.8889 22.59 91.1527 22.5834C90.4599 22.6021 89.7737 22.4467 89.1585 22.1318C88.5434 21.817 88.0195 21.3529 87.6362 20.7834L87.5507 22.2553L84.766 22.2834ZM90.6395 19.9115C91.1907 19.9115 91.6754 19.7615 92.1221 19.4897C92.5498 19.1897 92.8824 18.7959 93.158 18.3178C93.3956 17.8397 93.5192 17.2678 93.5192 16.6303C93.5562 16.0766 93.447 15.5229 93.2021 15.0233C92.9572 14.5238 92.5851 14.0955 92.1221 13.7803C91.6772 13.5069 91.1636 13.3619 90.6395 13.3619C90.1153 13.3619 89.6017 13.5069 89.1568 13.7803C88.7386 14.0803 88.3965 14.474 88.1304 14.9522C87.8651 15.4747 87.7407 16.0559 87.7692 16.6397C87.7322 17.1933 87.8415 17.747 88.0863 18.2466C88.3312 18.7462 88.7034 19.1745 89.1663 19.4897C89.613 19.7615 90.0692 19.9115 90.6395 19.9115Z" fill="#FF385C"/>
</g>
<defs>
<clipPath id="clip0_96_16">
<rect width="96.9412" height="30" fill="white"/>
</clipPath>
</defs>
</svg>
