<svg width="91" height="30" viewBox="0 0 91 30" fill="none" xmlns="http://www.w3.org/2000/svg">
<g clip-path="url(#clip0_102_48)">
<path d="M38.8139 15.3848C38.8139 19.5489 35.53 22.6174 31.4999 22.6174C27.4698 22.6174 24.1859 19.5489 24.1859 15.3848C24.1859 11.1913 27.4698 8.15216 31.4999 8.15216C35.53 8.15216 38.8139 11.1913 38.8139 15.3848ZM35.6122 15.3848C35.6122 12.7826 33.7089 11.0022 31.4999 11.0022C29.2909 11.0022 27.3876 12.7826 27.3876 15.3848C27.3876 17.9609 29.2909 19.7674 31.4999 19.7674C33.7089 19.7674 35.6122 17.9576 35.6122 15.3848Z" fill="#EA4335"/>
<path d="M54.5925 15.3848C54.5925 19.5489 51.3086 22.6174 47.2785 22.6174C43.2484 22.6174 39.9645 19.5489 39.9645 15.3848C39.9645 11.1946 43.2484 8.15216 47.2785 8.15216C51.3086 8.15216 54.5925 11.1913 54.5925 15.3848ZM51.3908 15.3848C51.3908 12.7826 49.4875 11.0022 47.2785 11.0022C45.0695 11.0022 43.1662 12.7826 43.1662 15.3848C43.1662 17.9609 45.0695 19.7674 47.2785 19.7674C49.4875 19.7674 51.3908 17.9576 51.3908 15.3848Z" fill="#FBBC05"/>
<path d="M69.7136 8.58912V21.5739C69.7136 26.9152 66.5382 29.0967 62.7842 29.0967C59.2505 29.0967 57.1236 26.7522 56.3216 24.8348L59.1091 23.6837C59.6055 24.8609 60.8218 26.25 62.7809 26.25C65.1839 26.25 66.673 24.7793 66.673 22.0109V20.9706H66.5612C65.8446 21.8478 64.464 22.6141 62.7218 22.6141C59.0762 22.6141 55.7365 19.4641 55.7365 15.4109C55.7365 11.3282 59.0762 8.15216 62.7218 8.15216C64.4607 8.15216 65.8413 8.91846 66.5612 9.76955H66.673V8.59238H69.7136V8.58912ZM66.8998 15.4109C66.8998 12.8641 65.1872 11.0022 63.0077 11.0022C60.7987 11.0022 58.948 12.8641 58.948 15.4109C58.948 17.9315 60.7987 19.7674 63.0077 19.7674C65.1872 19.7674 66.8998 17.9315 66.8998 15.4109Z" fill="#4285F4"/>
<path d="M74.7266 0.978271V22.1739H71.6038V0.978271H74.7266Z" fill="#34A853"/>
<path d="M86.8959 17.7652L89.3811 19.4087C88.579 20.5859 86.6461 22.6141 83.3063 22.6141C79.1645 22.6141 76.0712 19.4381 76.0712 15.3815C76.0712 11.0804 79.1907 8.14893 82.948 8.14893C86.7316 8.14893 88.5823 11.1359 89.1871 12.75L89.5191 13.5718L79.7726 17.5761C80.5188 19.0272 81.6792 19.7674 83.3063 19.7674C84.9368 19.7674 86.0676 18.9718 86.8959 17.7652ZM79.2466 15.1631L85.7619 12.4794C85.4036 11.5761 84.3254 10.9468 83.0565 10.9468C81.4293 10.9468 79.1645 12.3718 79.2466 15.1631Z" fill="#EA4335"/>
<path d="M12.3653 13.5033V10.4348H22.789C22.8909 10.9696 22.9435 11.6022 22.9435 12.287C22.9435 14.5891 22.3091 17.4359 20.2645 19.4641C18.2757 21.5185 15.7347 22.6141 12.3686 22.6141C6.12951 22.6141 0.883148 17.5728 0.883148 11.3837C0.883148 5.19456 6.12951 0.153259 12.3686 0.153259C15.8202 0.153259 18.279 1.49674 20.1264 3.24782L17.9437 5.41304C16.619 4.18043 14.8242 3.22174 12.3653 3.22174C7.80927 3.22174 4.24595 6.86413 4.24595 11.3837C4.24595 15.9033 7.80927 19.5457 12.3653 19.5457C15.3205 19.5457 17.0036 18.3685 18.0818 17.2989C18.9562 16.4315 19.5314 15.1924 19.7582 13.5L12.3653 13.5033Z" fill="#4285F4"/>
</g>
<defs>
<clipPath id="clip0_102_48">
<rect width="89.4118" height="30" fill="white" transform="translate(0.764709)"/>
</clipPath>
</defs>
</svg>
