<svg width="94" height="32" viewBox="0 0 94 32" fill="none" xmlns="http://www.w3.org/2000/svg">
<g clip-path="url(#clip0_102_57)">
<path fill-rule="evenodd" clip-rule="evenodd" d="M82.1775 14.9134L76.3072 25.0705L71.2987 25.0904L82.1775 5.97242L93.0156 25.0904H87.9278L82.1775 14.9124V14.9134ZM66.3705 20.6688H71.98L69.3756 25.0904H62.0642L62.0841 19.7066V6.08996H66.3914L66.3715 20.6688H66.3705ZM50.9861 6.09096C56.3347 6.11088 60.6619 10.3542 60.642 15.5997C60.6222 20.8262 56.2951 25.0705 50.9454 25.0705C45.6166 25.0506 41.2895 20.8072 41.2895 15.5608C41.3093 10.3343 45.6364 6.09096 50.9861 6.09096ZM50.9662 20.6499C53.8305 20.6499 56.1334 18.3897 56.1334 15.5997C56.1542 12.8106 53.8305 10.5305 50.9861 10.5305C48.1407 10.5106 45.8169 12.7907 45.8169 15.5807C45.7971 18.3698 48.1208 20.6499 50.9653 20.6499H50.9662ZM33.3166 14.0906C33.2571 13.3037 33.0557 12.2628 32.7552 11.2617C32.1369 9.19391 31.0619 7.29295 29.6103 5.70049C28.8486 4.87572 27.9878 4.10873 26.7044 3.20527C25.7261 2.72037 24.7642 2.20278 23.8203 1.65336C23.1995 1.29974 22.4576 0.866443 21.4767 0.552674C20.3137 0.276957 19.1249 0.125703 17.9301 0.101443C16.7698 0.0615997 15.6064 0.161209 14.4847 0.376365C13.3025 0.572596 12.3207 0.886365 11.0184 1.20113C8.07287 2.47812 5.7898 4.40357 3.82608 6.95855C-3.02512 16.5659 3.16556 30.0251 14.6047 31.6159C16.4881 31.8719 18.3715 31.7732 20.1537 31.3609L21.4162 31.0272C21.4559 31.0072 21.5164 30.9873 21.5561 30.9873L22.9991 30.4375C23.0785 30.3976 23.139 30.3777 23.2193 30.3389L23.8203 30.0639C24.9735 29.4924 26.056 28.787 27.0456 27.9622C26.1448 28.7842 25.165 29.5146 24.1208 30.1426L24.1803 30.1825C24.3817 30.1227 24.5612 30.0639 24.7615 30.0251C24.7615 30.0251 24.7615 30.3389 24.7218 30.2801C24.4015 30.5162 24.9023 30.3 25.543 29.9653C26.1847 29.6316 26.8056 29.2183 27.3659 28.7471C28.1881 28.0598 28.9091 27.3127 29.9307 26.0955C30.972 24.2677 32.2752 22.6759 32.8762 20.5343C33.0766 19.9645 33.2561 19.2972 33.3771 18.6089C33.4961 17.9216 33.5774 17.2143 33.5774 16.4872C33.5576 15.76 33.4772 15.013 33.3166 14.0906ZM18.4915 30.2412C21.9974 29.6904 24.942 27.746 27.3461 25.0934C28.0076 24.1302 28.5283 23.2457 29.169 22.2835C29.9703 20.3182 29.9108 18.57 30.1707 17.3329C30.492 15.0917 29.7303 13.2847 29.0896 11.3593C28.1078 9.11908 26.8056 7.44963 24.5215 6.15271C18.7513 2.57674 10.8984 3.57781 7.1525 8.92285C7.13267 8.92285 7.0315 9.06031 6.83117 9.33523C7.092 8.23555 7.75352 7.58709 8.41404 6.95756C10.3778 5.34687 12.6618 4.06888 15.2662 3.44135C18.2118 3.12658 21.1356 3.44135 23.7598 4.71834C27.6873 6.95756 30.2917 10.4758 30.9522 14.6394V18.4913C30.131 24.7986 24.7218 29.5928 18.4915 30.2412ZM32.8961 15.8975C32.7552 6.66371 23.6001 0.435135 14.6851 1.6932C12.0806 2.34066 9.23523 3.63758 7.21201 5.44549C6.23015 6.09295 5.76996 7.29224 4.7881 8.25447C0.860666 14.0119 1.54301 21.38 6.43049 25.8604C7.05742 26.4829 7.72684 27.0607 8.43388 27.5896C4.34775 25.1323 2.50404 21.4179 1.86335 16.9006C1.86335 15.2889 2.1837 13.6971 2.52388 12.0864C4.80893 5.03211 12.0003 -0.0957831 19.8344 1.20113C21.1366 1.5159 22.4388 1.84959 23.7618 2.16435C25.4042 2.81181 27.0267 3.77504 28.3289 5.05303C29.6311 6.32902 30.613 7.9407 31.5949 9.53146C32.2554 10.8095 32.5767 12.4201 32.8971 13.6971C32.9566 14.4243 32.9566 15.1713 32.8971 15.8985L32.8961 15.8975Z" fill="black"/>
<path fill-rule="evenodd" clip-rule="evenodd" d="M24.7623 16.0359C24.7623 20.0053 21.4369 23.2277 17.33 23.2277C13.224 23.2277 9.89758 20.0053 9.89758 16.0359C9.89758 12.0675 13.223 8.84509 17.33 8.84509C21.4369 8.84509 24.7623 12.0675 24.7623 16.0369V16.0359Z" fill="white"/>
<path fill-rule="evenodd" clip-rule="evenodd" d="M24.8031 14.8177C24.7029 14.2678 24.5422 13.8355 24.3825 13.2269C23.7409 11.8902 22.7997 10.8492 21.557 9.9647C16.9095 6.8808 10.5185 9.84716 9.83812 15.1135C9.57828 17.1963 10.3191 19.2005 11.6412 20.7335C11.2405 20.3201 10.8001 19.8888 10.4996 19.3967L10.46 19.4366C10.4996 19.5541 10.6603 19.6328 10.7 19.7503C10.7 19.7503 10.5393 19.7503 10.58 19.7304C10.46 19.5939 10.5601 19.8101 10.7396 20.1039C10.9003 20.3988 11.1007 20.6747 11.3407 20.9297C11.6818 21.3032 12.0419 21.6369 12.6429 22.0892C13.5256 22.5404 14.3061 23.1301 15.3276 23.405C15.6083 23.4847 15.9286 23.5624 16.25 23.6212C16.5901 23.6809 16.9105 23.7008 17.2715 23.7008C17.6117 23.7008 17.9727 23.661 18.413 23.5813C18.8671 23.5276 19.316 23.436 19.7549 23.3074C20.7354 23.011 21.6386 22.5008 22.4 21.8132C22.7808 21.4606 23.3223 21.0084 23.7418 20.4187C24.083 19.7513 24.1227 19.4166 24.2834 19.1218C24.443 18.827 24.6434 18.4933 24.7842 18.041C24.899 17.5045 24.966 16.9589 24.9845 16.4104C24.9647 15.8606 24.925 15.3297 24.804 14.8187L24.8031 14.8177ZM20.0346 11.164C20.7159 11.5565 20.8161 11.6152 20.4551 11.3602C20.9768 11.4778 21.2971 11.7726 21.6175 12.0675C22.399 12.952 23.0397 13.9929 23.36 15.1912C23.5405 16.5469 23.3997 17.9026 22.8195 19.1019C21.7781 20.9287 20.1149 22.1469 18.1314 22.4806C17.9112 22.4806 17.6712 22.4806 17.45 22.5005C18.0114 22.4019 18.3724 22.0483 19.3939 21.6748C20.4948 21.2823 21.7375 19.4555 22.3395 18.3937C24.1019 15.505 22.0181 12.8335 20.0346 11.164ZM16.2688 22.5195C13.2241 22.2057 10.8795 19.7105 10.5591 16.8218C10.8388 18.4335 11.8008 19.6706 13.1031 20.7713C13.5642 21.0662 14.2446 21.4786 14.7058 21.7734C15.4873 22.0682 15.9475 22.383 16.7092 22.5205H16.2688V22.5195ZM24.4619 17.274C24.323 17.8836 24.1822 18.4723 24.0414 19.082C23.7409 19.829 23.3005 20.595 22.6995 21.2036C22.0985 21.8132 21.3368 22.2844 20.5761 22.7366C19.9751 23.0504 19.2134 23.2078 18.5925 23.3642C18.2315 23.404 17.811 23.2466 17.45 23.2277C21.8981 23.1092 24.9429 18.9644 24.2824 14.8575C23.961 13.6592 23.3203 12.6173 22.5388 11.5764C22.2185 11.1242 21.5966 10.8492 21.1365 10.397C18.3515 8.64886 14.6661 9.00248 12.5625 11.3015C12.2676 11.6036 11.9929 11.925 11.7404 12.2637C12.863 10.6132 14.6661 9.4547 16.8292 9.12002C17.5908 9.1001 18.3724 9.23855 19.1331 9.37601C22.4992 10.397 25.0034 13.6592 24.4619 17.275V17.274Z" fill="#D7DF23"/>
</g>
<defs>
<clipPath id="clip0_102_57">
<rect width="92.2353" height="31.875" fill="white" transform="translate(0.882324 0.0625)"/>
</clipPath>
</defs>
</svg>
