<svg width="80" height="30" viewBox="0 0 80 30" fill="none" xmlns="http://www.w3.org/2000/svg">
<g clip-path="url(#clip0_102_69)">
<path d="M65.4719 28.725C72.9809 28.725 79.0909 22.5405 79.0909 14.94C79.0909 7.33503 72.9809 1.15503 65.4719 1.15503C57.9613 1.15503 51.8529 7.33503 51.8529 14.94C51.8529 22.5405 57.9613 28.725 65.4719 28.725ZM65.4719 10.0245C68.1479 10.0245 70.3273 12.2295 70.3273 14.9385C70.3273 17.6475 68.1464 19.8495 65.4704 19.8495C62.7928 19.8495 60.6164 17.6475 60.6164 14.937C60.6164 12.225 62.7943 10.0215 65.4704 10.0215L65.4719 10.0245ZM14.0896 28.725C21.5987 28.725 27.7086 22.5405 27.7086 14.94C27.7086 7.33503 21.5987 1.15503 14.0896 1.15503C6.58198 1.15503 0.470581 7.33503 0.470581 14.94C0.470581 22.5405 6.58198 28.725 14.0896 28.725ZM14.0896 10.0245C16.7671 10.0245 18.945 12.2295 18.945 14.9385C18.945 17.6475 16.7671 19.8495 14.0896 19.8495C11.4135 19.8495 9.23716 17.6475 9.23716 14.937C9.23716 12.225 11.415 10.0215 14.0896 10.0215V10.0245ZM39.7733 9.71403L35.5921 1.33503H25.8022L34.9462 19.665V28.2945H44.6018V19.665L53.7458 1.33503H43.9514L39.7748 9.71403H39.7733Z" fill="#EE2E24"/>
</g>
<defs>
<clipPath id="clip0_102_69">
<rect width="79.0588" height="30" fill="white" transform="translate(0.470581)"/>
</clipPath>
</defs>
</svg>
