<svg width="114" height="28" viewBox="0 0 114 28" fill="none" xmlns="http://www.w3.org/2000/svg">
<g clip-path="url(#clip0_102_64)">
<path d="M40.7221 10.2118V11.6994H40.768C41.3075 10.903 42.2031 9.96495 44.1882 9.96495C45.7326 9.96495 46.9173 10.745 47.425 11.9232H47.4709C47.9046 11.3275 48.4017 10.8766 48.9588 10.5574C49.6182 10.1789 50.3516 9.96166 51.2754 9.96166C53.3663 9.96166 55.2175 11.3111 55.2175 14.7142V21.1684H52.03V15.1651C52.03 13.4405 51.4024 12.4433 50.0977 12.4433C49.1422 12.4433 48.4476 13.0423 48.1831 13.7795C48.0915 14.0329 48.0491 14.3785 48.0491 14.6681V21.1717H44.8617V14.9216C44.8617 13.457 44.2587 12.44 42.9717 12.44C41.9421 12.44 41.2969 13.197 41.0324 13.8453C40.9196 14.1218 40.8843 14.441 40.8843 14.7406V21.1684H37.6933V10.2118H40.7221ZM71.6697 10.2118V12.2787H71.7579C72.3432 10.6989 73.7324 9.96495 74.9524 9.96495C75.2592 9.96495 75.4284 9.98799 75.6752 10.0341V12.904C75.3826 12.8645 75.1111 12.825 74.7303 12.825C73.3481 12.825 72.3855 13.5754 72.1422 14.7504C72.0893 14.994 72.0717 15.2573 72.0717 15.5601V21.1717H68.7996V10.2118H71.6697ZM80.118 6.58154V10.0308H82.8824V12.8218H80.118V16.9391C80.118 18.2721 80.4812 18.9171 81.5601 18.9171C82.0679 18.9171 82.4416 18.8579 82.766 18.7822L82.8083 21.096C82.3746 21.2474 81.4508 21.4119 80.5129 21.4119C79.4093 21.4119 78.489 21.0532 77.9284 20.497C77.2866 19.8617 76.9904 18.8217 76.9904 17.3406V6.58154H80.118ZM35.4719 21.1684H32.2986V6.58154H35.4719V21.1684ZM27.0096 17.2551C27.0096 17.4558 26.9919 17.6665 26.932 17.8475C26.6852 18.6078 25.8425 19.2496 24.7917 19.2496C23.9138 19.2496 23.2156 18.7855 23.2156 17.8014C23.2156 16.2973 24.9927 15.8793 27.0131 15.8892V17.2551H27.0096ZM30.1794 14.6319C30.1794 12.147 29.0441 9.96495 25.2043 9.96495C23.2332 9.96495 21.6677 10.4817 20.8144 10.9424L21.4385 12.9369C22.2178 12.4762 23.4624 12.0977 24.6401 12.0977C26.59 12.0944 26.9073 13.1278 26.9073 13.7894V13.9474C22.6585 13.9408 19.9752 15.3132 19.9752 18.1108C19.9752 19.819 21.3398 21.4185 23.7163 21.4185C25.1796 21.4185 26.3996 20.8754 27.133 20.0033H27.2035C27.2035 20.0033 27.6901 21.8957 30.3628 21.1717C30.2218 20.3818 30.1759 19.5425 30.1759 18.5321V14.6319H30.1794ZM4.03425 6.58154C4.36217 8.12514 5.29303 12.6078 5.29303 12.6078C5.68441 14.4509 6.04406 16.3829 6.31556 17.91H6.36493C6.62938 16.2874 7.04544 14.7504 7.48972 12.8481L9.05878 6.58154H12.5319L13.9987 13.0094C14.383 14.7965 14.6898 16.1755 14.9331 17.8376H14.9789C15.2434 16.1591 15.5889 14.7241 15.9662 12.8876L17.3766 6.58154H20.7086L16.5797 21.1684C13.9493 21.7048 12.9409 20.7175 12.5812 19.1508C12.2216 17.5809 11.5164 14.5957 11.5164 14.5957C11.1532 12.96 10.8711 11.808 10.6737 10.1295H10.6243C10.3422 11.7916 10.0461 12.9567 9.60883 14.5924L7.87758 21.1717C5.19077 21.6719 4.25991 20.9314 3.74512 18.9204C3.30084 17.1991 0.529419 6.58483 0.529419 6.58483H4.03425V6.58154ZM63.5106 17.2551C63.5106 17.4558 63.493 17.6665 63.433 17.8475C63.1862 18.6078 62.3435 19.2496 61.2927 19.2496C60.4148 19.2496 59.7166 18.7855 59.7166 17.8014C59.7166 16.2973 61.4937 15.8793 63.5141 15.8892V17.2551H63.5106ZM66.6805 14.6319C66.6805 12.147 65.5451 9.96495 61.7053 9.96495C59.7343 9.96495 58.1687 10.4817 57.3154 10.9424L57.9395 12.9369C58.7188 12.4762 59.9634 12.0977 61.1411 12.0977C63.0875 12.0944 63.4083 13.1278 63.4083 13.7894V13.9474C59.1631 13.9408 56.4798 15.3132 56.4798 18.1108C56.4798 19.819 57.8479 21.4185 60.2208 21.4185C61.6806 21.4185 62.9041 20.8754 63.634 20.0033H63.708C63.708 20.0033 64.1946 21.8957 66.8673 21.1717C66.7263 20.3818 66.6805 19.5425 66.6805 18.5321V14.6319Z" fill="#041E42"/>
<path d="M95.7462 16.1445C96.059 16.6772 96.0379 17.2718 95.704 17.5433L89.933 21.499C89.332 21.8393 88.4322 21.4268 87.9226 20.5642C87.4094 19.6982 87.5008 18.7324 88.1018 18.3922L94.4915 15.4847C94.8921 15.3335 95.4334 15.6118 95.7462 16.1445ZM103.341 16.1445C103.658 15.6118 104.195 15.3369 104.596 15.4812L110.989 18.3887C111.59 18.729 111.678 19.6947 111.169 20.5608C110.655 21.4234 109.752 21.8324 109.155 21.4956L103.384 17.5399C103.053 17.2718 103.029 16.6738 103.341 16.1445ZM99.542 18.2891C100.171 18.2891 100.688 18.6053 100.758 19.0211L101.38 25.8878C101.38 26.5682 100.568 27.125 99.5456 27.125C98.5263 27.125 97.7109 26.5682 97.7109 25.8878L98.3295 19.0211C98.3998 18.6053 98.9164 18.2891 99.542 18.2891ZM103.384 10.4601L109.155 6.50098C109.752 6.16074 110.655 6.56972 111.169 7.43578C111.678 8.30185 111.59 9.26758 110.989 9.60782L104.596 12.5188C104.195 12.6631 103.654 12.3882 103.341 11.8555C103.029 11.3228 103.053 10.7282 103.384 10.4601ZM94.4915 12.5188L88.1018 9.60782C87.5043 9.26758 87.413 8.30185 87.9226 7.43578C88.4322 6.56972 89.3355 6.16074 89.933 6.50098L95.704 10.4601C96.0379 10.7248 96.059 11.3228 95.7462 11.8555C95.4334 12.3882 94.8921 12.6631 94.4915 12.5188ZM98.3295 8.97889L97.7109 2.11223C97.7109 1.43176 98.5228 0.875 99.5456 0.875C100.568 0.875 101.38 1.43176 101.38 2.11223L100.758 8.97889C100.688 9.3913 100.171 9.71092 99.542 9.71092C98.9164 9.71092 98.3998 9.3913 98.3295 8.97889ZM112.729 21.4715V21.2997H112.887C112.94 21.2997 112.975 21.3341 112.975 21.3856C112.975 21.4337 112.94 21.4715 112.887 21.4715H112.729ZM112.599 21.7843C112.599 21.8015 112.613 21.8186 112.634 21.8186H112.701C112.718 21.8186 112.736 21.8015 112.736 21.7843V21.5884H112.845L112.933 21.7946C112.94 21.8083 112.95 21.8186 112.965 21.8186H113.045C113.07 21.8186 113.088 21.7946 113.077 21.7705C113.045 21.7087 113.014 21.6434 112.982 21.5781C113.035 21.5609 113.116 21.5093 113.116 21.3856C113.116 21.255 113.007 21.1794 112.898 21.1794H112.634C112.617 21.1794 112.599 21.1966 112.599 21.2138V21.7843ZM112.314 21.499C112.314 21.2206 112.546 20.9938 112.831 20.9938C113.116 20.9938 113.348 21.2172 113.348 21.499C113.348 21.7774 113.119 22.0042 112.831 22.0042C112.543 22.0042 112.314 21.7774 112.314 21.499ZM112.191 21.499C112.191 21.8427 112.476 22.1245 112.831 22.1245C113.182 22.1245 113.471 21.8427 113.471 21.499C113.471 21.1553 113.182 20.8735 112.831 20.8735C112.476 20.8735 112.191 21.1553 112.191 21.499Z" fill="#FFC124"/>
</g>
<defs>
<clipPath id="clip0_102_64">
<rect width="112.941" height="26.25" fill="white" transform="translate(0.529419 0.875)"/>
</clipPath>
</defs>
</svg>
