<svg width="350" height="148" viewBox="0 0 350 148" fill="none" xmlns="http://www.w3.org/2000/svg">
<path d="M165.667 1.33333H161.667C161.313 1.33333 160.974 1.47381 160.724 1.72386C160.474 1.9739 160.333 2.31304 160.333 2.66667V29.3333C160.333 29.687 160.474 30.0261 160.724 30.2761C160.974 30.5262 161.313 30.6667 161.667 30.6667H165.667V1.33333Z" fill="#D6B1FF"/>
<path d="M168.333 30.6667H181.667V1.33333H168.333V30.6667ZM175 25.3333C174.646 25.3333 174.307 25.1929 174.057 24.9428C173.807 24.6928 173.667 24.3536 173.667 24C173.667 23.6464 173.807 23.3072 174.057 23.0572C174.307 22.8071 174.646 22.6667 175 22.6667C175.354 22.6667 175.693 22.8071 175.943 23.0572C176.193 23.3072 176.333 23.6464 176.333 24C176.333 24.3536 176.193 24.6928 175.943 24.9428C175.693 25.1929 175.354 25.3333 175 25.3333ZM175 6.66667C175.354 6.66667 175.693 6.80714 175.943 7.05719C176.193 7.30724 176.333 7.64638 176.333 8C176.333 8.35362 176.193 8.69276 175.943 8.94281C175.693 9.19286 175.354 9.33333 175 9.33333C174.646 9.33333 174.307 9.19286 174.057 8.94281C173.807 8.69276 173.667 8.35362 173.667 8C173.667 7.64638 173.807 7.30724 174.057 7.05719C174.307 6.80714 174.646 6.66667 175 6.66667ZM175 14.6667C175.354 14.6667 175.693 14.8071 175.943 15.0572C176.193 15.3072 176.333 15.6464 176.333 16C176.333 16.3536 176.193 16.6928 175.943 16.9428C175.693 17.1929 175.354 17.3333 175 17.3333C174.646 17.3333 174.307 17.1929 174.057 16.9428C173.807 16.6928 173.667 16.3536 173.667 16C173.667 15.6464 173.807 15.3072 174.057 15.0572C174.307 14.8071 174.646 14.6667 175 14.6667Z" fill="#8C30F5"/>
<path d="M188.333 1.33333H184.333V30.6667H188.333C188.687 30.6667 189.026 30.5262 189.276 30.2761C189.526 30.0261 189.667 29.687 189.667 29.3333V2.66667C189.667 2.31304 189.526 1.9739 189.276 1.72386C189.026 1.47381 188.687 1.33333 188.333 1.33333Z" fill="#2EC5CE"/>
<g clip-path="url(#clip0_158_417)">
<path d="M65.0888 81V63.5455H71.7706C73.032 63.5455 74.0803 63.7443 74.9155 64.142C75.7564 64.5341 76.3842 65.071 76.799 65.7528C77.2195 66.4347 77.4297 67.2074 77.4297 68.071C77.4297 68.7812 77.2933 69.3892 77.0206 69.8949C76.7479 70.3949 76.3814 70.8011 75.9212 71.1136C75.4609 71.4261 74.9467 71.6506 74.3786 71.7869V71.9574C74.9979 71.9915 75.5916 72.1818 76.1598 72.5284C76.7337 72.8693 77.2024 73.3523 77.5661 73.9773C77.9297 74.6023 78.1115 75.358 78.1115 76.2443C78.1115 77.1477 77.8928 77.9602 77.4553 78.6818C77.0178 79.3977 76.3587 79.9631 75.478 80.3778C74.5973 80.7926 73.4893 81 72.1541 81H65.0888ZM68.2507 78.358H71.6513C72.799 78.358 73.6257 78.1392 74.1314 77.7017C74.6428 77.2585 74.8984 76.6903 74.8984 75.9972C74.8984 75.4801 74.7706 75.0142 74.5149 74.5994C74.2592 74.179 73.8956 73.8494 73.424 73.6108C72.9524 73.3665 72.3899 73.2443 71.7365 73.2443H68.2507V78.358ZM68.2507 70.9688H71.3786C71.924 70.9688 72.4155 70.8693 72.853 70.6705C73.2905 70.4659 73.6342 70.179 73.8842 69.8097C74.1399 69.4347 74.2678 68.9915 74.2678 68.4801C74.2678 67.804 74.0291 67.2472 73.5518 66.8097C73.0803 66.3722 72.3786 66.1534 71.4467 66.1534H68.2507V70.9688ZM86.5213 81.2557C85.2088 81.2557 84.0753 80.983 83.1207 80.4375C82.1719 79.8864 81.4418 79.108 80.9304 78.1023C80.419 77.0909 80.1634 75.9006 80.1634 74.5312C80.1634 73.1847 80.419 72.0028 80.9304 70.9858C81.4474 69.9631 82.169 69.1676 83.0952 68.5994C84.0213 68.0256 85.1094 67.7386 86.3594 67.7386C87.1662 67.7386 87.9276 67.8693 88.6435 68.1307C89.3651 68.3864 90.0014 68.7841 90.5526 69.3239C91.1094 69.8636 91.5469 70.5511 91.8651 71.3864C92.1832 72.2159 92.3423 73.2045 92.3423 74.3523V75.2983H81.6122V73.2188H89.3849C89.3793 72.6278 89.2514 72.1023 89.0014 71.642C88.7514 71.1761 88.402 70.8097 87.9531 70.5426C87.5099 70.2756 86.9929 70.142 86.402 70.142C85.7713 70.142 85.2173 70.2955 84.7401 70.6023C84.2628 70.9034 83.8906 71.3011 83.6236 71.7955C83.3622 72.2841 83.2287 72.821 83.223 73.4062V75.2216C83.223 75.983 83.3622 76.6364 83.6406 77.1818C83.919 77.7216 84.3082 78.1364 84.8082 78.4261C85.3082 78.7102 85.8935 78.8523 86.5639 78.8523C87.0128 78.8523 87.419 78.7898 87.7827 78.6648C88.1463 78.5341 88.4616 78.3438 88.7287 78.0938C88.9957 77.8438 89.1974 77.5341 89.3338 77.1648L92.2145 77.4886C92.0327 78.25 91.6861 78.9148 91.1747 79.483C90.669 80.0455 90.0213 80.483 89.2315 80.7955C88.4418 81.1023 87.5384 81.2557 86.5213 81.2557ZM101.489 67.9091V70.2955H93.9638V67.9091H101.489ZM95.8217 64.7727H98.907V77.0625C98.907 77.4773 98.9695 77.7955 99.0945 78.017C99.2251 78.233 99.3956 78.3807 99.6058 78.4602C99.8161 78.5398 100.049 78.5795 100.305 78.5795C100.498 78.5795 100.674 78.5653 100.833 78.5369C100.998 78.5085 101.123 78.483 101.208 78.4602L101.728 80.8722C101.563 80.929 101.327 80.9915 101.021 81.0597C100.719 81.1278 100.35 81.1676 99.9126 81.179C99.1399 81.2017 98.4439 81.0852 97.8246 80.8295C97.2053 80.5682 96.7138 80.1648 96.3501 79.6193C95.9922 79.0739 95.8161 78.392 95.8217 77.5739V64.7727ZM110.607 67.9091V70.2955H103.081V67.9091H110.607ZM104.939 64.7727H108.024V77.0625C108.024 77.4773 108.087 77.7955 108.212 78.017C108.342 78.233 108.513 78.3807 108.723 78.4602C108.933 78.5398 109.166 78.5795 109.422 78.5795C109.615 78.5795 109.791 78.5653 109.95 78.5369C110.115 78.5085 110.24 78.483 110.325 78.4602L110.845 80.8722C110.68 80.929 110.445 80.9915 110.138 81.0597C109.837 81.1278 109.467 81.1676 109.03 81.179C108.257 81.2017 107.561 81.0852 106.942 80.8295C106.322 80.5682 105.831 80.1648 105.467 79.6193C105.109 79.0739 104.933 78.392 104.939 77.5739V64.7727ZM118.842 81.2557C117.529 81.2557 116.396 80.983 115.441 80.4375C114.492 79.8864 113.762 79.108 113.251 78.1023C112.739 77.0909 112.484 75.9006 112.484 74.5312C112.484 73.1847 112.739 72.0028 113.251 70.9858C113.768 69.9631 114.489 69.1676 115.415 68.5994C116.342 68.0256 117.43 67.7386 118.68 67.7386C119.487 67.7386 120.248 67.8693 120.964 68.1307C121.685 68.3864 122.322 68.7841 122.873 69.3239C123.43 69.8636 123.867 70.5511 124.185 71.3864C124.504 72.2159 124.663 73.2045 124.663 74.3523V75.2983H113.933V73.2188H121.705C121.7 72.6278 121.572 72.1023 121.322 71.642C121.072 71.1761 120.722 70.8097 120.273 70.5426C119.83 70.2756 119.313 70.142 118.722 70.142C118.092 70.142 117.538 70.2955 117.06 70.6023C116.583 70.9034 116.211 71.3011 115.944 71.7955C115.683 72.2841 115.549 72.821 115.543 73.4062V75.2216C115.543 75.983 115.683 76.6364 115.961 77.1818C116.239 77.7216 116.629 78.1364 117.129 78.4261C117.629 78.7102 118.214 78.8523 118.884 78.8523C119.333 78.8523 119.739 78.7898 120.103 78.6648C120.467 78.5341 120.782 78.3438 121.049 78.0938C121.316 77.8438 121.518 77.5341 121.654 77.1648L124.535 77.4886C124.353 78.25 124.006 78.9148 123.495 79.483C122.989 80.0455 122.342 80.483 121.552 80.7955C120.762 81.1023 119.859 81.2557 118.842 81.2557ZM127.273 81V67.9091H130.264V70.0909H130.401C130.639 69.3352 131.048 68.7528 131.628 68.3438C132.207 67.929 132.875 67.7216 133.631 67.7216C133.983 67.7216 134.307 67.7642 134.602 67.8494C134.898 67.9347 135.159 68.0511 135.386 68.1989L134.432 70.7557C134.267 70.6761 134.085 70.6108 133.886 70.5597C133.688 70.5085 133.463 70.483 133.213 70.483C132.679 70.483 132.196 70.6023 131.764 70.8409C131.332 71.0795 130.989 71.4119 130.733 71.8381C130.483 72.2585 130.358 72.7472 130.358 73.304V81H127.273ZM148.756 81.2557C147.45 81.2557 146.327 80.9688 145.39 80.3949C144.458 79.821 143.739 79.0284 143.234 78.017C142.734 77 142.484 75.8295 142.484 74.5057C142.484 73.1761 142.739 72.0028 143.251 70.9858C143.762 69.9631 144.484 69.1676 145.415 68.5994C146.353 68.0256 147.461 67.7386 148.739 67.7386C149.802 67.7386 150.742 67.9347 151.56 68.3267C152.384 68.7131 153.04 69.2614 153.529 69.9716C154.018 70.6761 154.296 71.5 154.364 72.4432H151.415C151.296 71.8125 151.012 71.2869 150.563 70.8665C150.12 70.4403 149.526 70.2273 148.782 70.2273C148.151 70.2273 147.597 70.3977 147.12 70.7386C146.643 71.0739 146.271 71.5568 146.004 72.1875C145.742 72.8182 145.612 73.5739 145.612 74.4545C145.612 75.3466 145.742 76.1136 146.004 76.7557C146.265 77.392 146.631 77.8835 147.103 78.2301C147.58 78.571 148.14 78.7415 148.782 78.7415C149.237 78.7415 149.643 78.6562 150.001 78.4858C150.364 78.3097 150.668 78.0568 150.913 77.7273C151.157 77.3977 151.325 76.9972 151.415 76.5256H154.364C154.29 77.4517 154.018 78.2727 153.546 78.9886C153.075 79.6989 152.433 80.2557 151.62 80.6591C150.808 81.0568 149.853 81.2557 148.756 81.2557ZM162.608 81.2557C161.33 81.2557 160.222 80.9744 159.284 80.4119C158.347 79.8494 157.619 79.0625 157.102 78.0511C156.591 77.0398 156.335 75.858 156.335 74.5057C156.335 73.1534 156.591 71.9687 157.102 70.9517C157.619 69.9347 158.347 69.1449 159.284 68.5824C160.222 68.0199 161.33 67.7386 162.608 67.7386C163.886 67.7386 164.994 68.0199 165.932 68.5824C166.869 69.1449 167.594 69.9347 168.105 70.9517C168.622 71.9687 168.881 73.1534 168.881 74.5057C168.881 75.858 168.622 77.0398 168.105 78.0511C167.594 79.0625 166.869 79.8494 165.932 80.4119C164.994 80.9744 163.886 81.2557 162.608 81.2557ZM162.625 78.7841C163.318 78.7841 163.898 78.5937 164.364 78.2131C164.83 77.8267 165.176 77.3097 165.403 76.6619C165.636 76.0142 165.753 75.2926 165.753 74.4972C165.753 73.696 165.636 72.9716 165.403 72.3239C165.176 71.6705 164.83 71.1506 164.364 70.7642C163.898 70.3778 163.318 70.1847 162.625 70.1847C161.915 70.1847 161.324 70.3778 160.852 70.7642C160.386 71.1506 160.037 71.6705 159.804 72.3239C159.577 72.9716 159.463 73.696 159.463 74.4972C159.463 75.2926 159.577 76.0142 159.804 76.6619C160.037 77.3097 160.386 77.8267 160.852 78.2131C161.324 78.5937 161.915 78.7841 162.625 78.7841ZM171.499 81V67.9091H174.448V70.1335H174.602C174.874 69.3835 175.326 68.7983 175.957 68.3778C176.587 67.9517 177.34 67.7386 178.215 67.7386C179.102 67.7386 179.849 67.9545 180.457 68.3864C181.07 68.8125 181.502 69.3949 181.752 70.1335H181.888C182.178 69.4062 182.667 68.8267 183.354 68.3949C184.048 67.9574 184.869 67.7386 185.817 67.7386C187.022 67.7386 188.005 68.1193 188.766 68.8807C189.528 69.642 189.908 70.7528 189.908 72.2131V81H186.815V72.6903C186.815 71.8778 186.599 71.2841 186.167 70.9091C185.735 70.5284 185.207 70.3381 184.582 70.3381C183.837 70.3381 183.255 70.571 182.835 71.0369C182.42 71.4972 182.212 72.0966 182.212 72.8352V81H179.187V72.5625C179.187 71.8864 178.982 71.3466 178.573 70.9432C178.17 70.5398 177.641 70.3381 176.988 70.3381C176.545 70.3381 176.141 70.4517 175.778 70.679C175.414 70.9006 175.124 71.2159 174.908 71.625C174.692 72.0284 174.585 72.5 174.585 73.0398V81H171.499ZM193.038 85.9091V67.9091H196.072V70.0739H196.251C196.411 69.7557 196.635 69.4176 196.925 69.0597C197.214 68.696 197.607 68.3864 198.101 68.1307C198.595 67.8693 199.226 67.7386 199.993 67.7386C201.004 67.7386 201.916 67.9972 202.729 68.5142C203.547 69.0256 204.195 69.7841 204.672 70.7898C205.155 71.7898 205.396 73.017 205.396 74.4716C205.396 75.9091 205.161 77.1307 204.689 78.1364C204.217 79.142 203.575 79.9091 202.763 80.4375C201.95 80.9659 201.03 81.2301 200.001 81.2301C199.251 81.2301 198.629 81.1051 198.135 80.8551C197.641 80.6051 197.243 80.304 196.942 79.9517C196.646 79.5937 196.416 79.2557 196.251 78.9375H196.124V85.9091H193.038ZM196.064 74.4545C196.064 75.3011 196.183 76.0426 196.422 76.679C196.666 77.3153 197.016 77.8125 197.47 78.1705C197.93 78.5227 198.487 78.6989 199.141 78.6989C199.822 78.6989 200.393 78.517 200.854 78.1534C201.314 77.7841 201.661 77.2812 201.893 76.6449C202.132 76.0028 202.251 75.2727 202.251 74.4545C202.251 73.642 202.135 72.9205 201.902 72.2898C201.669 71.6591 201.322 71.1648 200.862 70.8068C200.402 70.4489 199.828 70.2699 199.141 70.2699C198.482 70.2699 197.922 70.4432 197.462 70.7898C197.001 71.1364 196.652 71.6222 196.413 72.2472C196.18 72.8722 196.064 73.608 196.064 74.4545ZM213.749 81.2557C212.47 81.2557 211.362 80.9744 210.425 80.4119C209.487 79.8494 208.76 79.0625 208.243 78.0511C207.732 77.0398 207.476 75.858 207.476 74.5057C207.476 73.1534 207.732 71.9687 208.243 70.9517C208.76 69.9347 209.487 69.1449 210.425 68.5824C211.362 68.0199 212.47 67.7386 213.749 67.7386C215.027 67.7386 216.135 68.0199 217.072 68.5824C218.01 69.1449 218.734 69.9347 219.246 70.9517C219.763 71.9687 220.021 73.1534 220.021 74.5057C220.021 75.858 219.763 77.0398 219.246 78.0511C218.734 79.0625 218.01 79.8494 217.072 80.4119C216.135 80.9744 215.027 81.2557 213.749 81.2557ZM213.766 78.7841C214.459 78.7841 215.038 78.5937 215.504 78.2131C215.97 77.8267 216.317 77.3097 216.544 76.6619C216.777 76.0142 216.893 75.2926 216.893 74.4972C216.893 73.696 216.777 72.9716 216.544 72.3239C216.317 71.6705 215.97 71.1506 215.504 70.7642C215.038 70.3778 214.459 70.1847 213.766 70.1847C213.055 70.1847 212.464 70.3778 211.993 70.7642C211.527 71.1506 211.178 71.6705 210.945 72.3239C210.717 72.9716 210.604 73.696 210.604 74.4972C210.604 75.2926 210.717 76.0142 210.945 76.6619C211.178 77.3097 211.527 77.8267 211.993 78.2131C212.464 78.5937 213.055 78.7841 213.766 78.7841ZM225.725 73.3295V81H222.64V67.9091H225.589V70.1335H225.742C226.043 69.4006 226.523 68.8182 227.183 68.3864C227.847 67.9545 228.668 67.7386 229.646 67.7386C230.549 67.7386 231.336 67.9318 232.006 68.3182C232.683 68.7045 233.205 69.2642 233.575 69.9972C233.95 70.7301 234.134 71.6193 234.129 72.6648V81H231.043V73.142C231.043 72.267 230.816 71.5824 230.362 71.0881C229.913 70.5937 229.29 70.3466 228.495 70.3466C227.955 70.3466 227.475 70.4659 227.055 70.7045C226.64 70.9375 226.313 71.2756 226.075 71.7188C225.842 72.1619 225.725 72.6989 225.725 73.3295ZM243.06 81.2557C241.748 81.2557 240.614 80.983 239.66 80.4375C238.711 79.8864 237.981 79.108 237.469 78.1023C236.958 77.0909 236.702 75.9006 236.702 74.5312C236.702 73.1847 236.958 72.0028 237.469 70.9858C237.987 69.9631 238.708 69.1676 239.634 68.5994C240.56 68.0256 241.648 67.7386 242.898 67.7386C243.705 67.7386 244.467 67.8693 245.183 68.1307C245.904 68.3864 246.54 68.7841 247.092 69.3239C247.648 69.8636 248.086 70.5511 248.404 71.3864C248.722 72.2159 248.881 73.2045 248.881 74.3523V75.2983H238.151V73.2188H245.924C245.918 72.6278 245.79 72.1023 245.54 71.642C245.29 71.1761 244.941 70.8097 244.492 70.5426C244.049 70.2756 243.532 70.142 242.941 70.142C242.31 70.142 241.756 70.2955 241.279 70.6023C240.802 70.9034 240.43 71.3011 240.163 71.7955C239.901 72.2841 239.768 72.821 239.762 73.4062V75.2216C239.762 75.983 239.901 76.6364 240.18 77.1818C240.458 77.7216 240.847 78.1364 241.347 78.4261C241.847 78.7102 242.433 78.8523 243.103 78.8523C243.552 78.8523 243.958 78.7898 244.322 78.6648C244.685 78.5341 245.001 78.3438 245.268 78.0938C245.535 77.8438 245.737 77.5341 245.873 77.1648L248.754 77.4886C248.572 78.25 248.225 78.9148 247.714 79.483C247.208 80.0455 246.56 80.483 245.771 80.7955C244.981 81.1023 244.077 81.2557 243.06 81.2557ZM254.577 73.3295V81H251.491V67.9091H254.44V70.1335H254.594C254.895 69.4006 255.375 68.8182 256.034 68.3864C256.699 67.9545 257.52 67.7386 258.497 67.7386C259.401 67.7386 260.188 67.9318 260.858 68.3182C261.534 68.7045 262.057 69.2642 262.426 69.9972C262.801 70.7301 262.986 71.6193 262.98 72.6648V81H259.895V73.142C259.895 72.267 259.668 71.5824 259.213 71.0881C258.764 70.5937 258.142 70.3466 257.347 70.3466C256.807 70.3466 256.327 70.4659 255.906 70.7045C255.491 70.9375 255.165 71.2756 254.926 71.7188C254.693 72.1619 254.577 72.6989 254.577 73.3295ZM272.653 67.9091V70.2955H265.128V67.9091H272.653ZM266.986 64.7727H270.071V77.0625C270.071 77.4773 270.134 77.7955 270.259 78.017C270.389 78.233 270.56 78.3807 270.77 78.4602C270.98 78.5398 271.213 78.5795 271.469 78.5795C271.662 78.5795 271.838 78.5653 271.997 78.5369C272.162 78.5085 272.287 78.483 272.372 78.4602L272.892 80.8722C272.727 80.929 272.491 80.9915 272.185 81.0597C271.884 81.1278 271.514 81.1676 271.077 81.179C270.304 81.2017 269.608 81.0852 268.989 80.8295C268.369 80.5682 267.878 80.1648 267.514 79.6193C267.156 79.0739 266.98 78.392 266.986 77.5739V64.7727ZM285.393 71.3693L282.58 71.6761C282.501 71.392 282.362 71.125 282.163 70.875C281.969 70.625 281.708 70.4233 281.379 70.2699C281.049 70.1165 280.646 70.0398 280.168 70.0398C279.526 70.0398 278.987 70.179 278.549 70.4574C278.117 70.7358 277.904 71.0966 277.91 71.5398C277.904 71.9205 278.043 72.2301 278.327 72.4688C278.617 72.7074 279.094 72.9034 279.759 73.0568L281.992 73.5341C283.231 73.8011 284.151 74.2244 284.754 74.804C285.362 75.3835 285.668 76.142 285.674 77.0795C285.668 77.9034 285.427 78.6307 284.95 79.2614C284.478 79.8864 283.822 80.375 282.981 80.7273C282.14 81.0795 281.174 81.2557 280.083 81.2557C278.481 81.2557 277.191 80.9205 276.214 80.25C275.237 79.5739 274.654 78.6335 274.467 77.429L277.475 77.1392C277.612 77.7301 277.901 78.1761 278.344 78.4773C278.788 78.7784 279.364 78.929 280.075 78.929C280.808 78.929 281.396 78.7784 281.839 78.4773C282.288 78.1761 282.512 77.804 282.512 77.3608C282.512 76.9858 282.367 76.6761 282.077 76.4318C281.793 76.1875 281.35 76 280.748 75.8693L278.515 75.4006C277.259 75.1392 276.33 74.6989 275.728 74.0795C275.126 73.4545 274.827 72.6648 274.833 71.7102C274.827 70.9034 275.046 70.2045 275.489 69.6136C275.938 69.017 276.56 68.5568 277.356 68.233C278.157 67.9034 279.08 67.7386 280.126 67.7386C281.66 67.7386 282.867 68.0653 283.748 68.7188C284.634 69.3722 285.183 70.2557 285.393 71.3693Z" fill="#18191F"/>
<path d="M23.0497 115V103.364H24.4588V113.75H29.8679V115H23.0497ZM35.4134 115.182C34.6255 115.182 33.9342 114.994 33.3395 114.619C32.7486 114.244 32.2865 113.72 31.9531 113.045C31.6236 112.371 31.4588 111.583 31.4588 110.682C31.4588 109.773 31.6236 108.979 31.9531 108.301C32.2865 107.623 32.7486 107.097 33.3395 106.722C33.9342 106.347 34.6255 106.159 35.4134 106.159C36.2012 106.159 36.8906 106.347 37.4815 106.722C38.0762 107.097 38.5384 107.623 38.8679 108.301C39.2012 108.979 39.3679 109.773 39.3679 110.682C39.3679 111.583 39.2012 112.371 38.8679 113.045C38.5384 113.72 38.0762 114.244 37.4815 114.619C36.8906 114.994 36.2012 115.182 35.4134 115.182ZM35.4134 113.977C36.0118 113.977 36.5043 113.824 36.8906 113.517C37.277 113.21 37.563 112.807 37.7486 112.307C37.9342 111.807 38.027 111.265 38.027 110.682C38.027 110.098 37.9342 109.555 37.7486 109.051C37.563 108.547 37.277 108.14 36.8906 107.83C36.5043 107.519 36.0118 107.364 35.4134 107.364C34.8149 107.364 34.3224 107.519 33.9361 107.83C33.5497 108.14 33.2637 108.547 33.0781 109.051C32.8925 109.555 32.7997 110.098 32.7997 110.682C32.7997 111.265 32.8925 111.807 33.0781 112.307C33.2637 112.807 33.5497 113.21 33.9361 113.517C34.3224 113.824 34.8149 113.977 35.4134 113.977ZM41.4148 115V106.273H42.7102V107.591H42.8011C42.9564 107.159 43.2424 106.809 43.6591 106.54C44.0758 106.271 44.5473 106.136 45.0739 106.136C45.3163 106.136 45.5284 106.165 45.7102 106.222C45.892 106.278 46.0511 106.356 46.1875 106.455L45.733 107.591C45.6383 107.542 45.5265 107.504 45.3977 107.477C45.2727 107.447 45.1269 107.432 44.9602 107.432C44.536 107.432 44.1572 107.521 43.8239 107.699C43.4943 107.877 43.233 108.119 43.0398 108.426C42.8504 108.733 42.7557 109.083 42.7557 109.477V115H41.4148ZM50.9489 115.182C50.108 115.182 49.3826 114.996 48.7727 114.625C48.1667 114.25 47.6989 113.727 47.3693 113.057C47.0436 112.383 46.8807 111.598 46.8807 110.705C46.8807 109.811 47.0436 109.023 47.3693 108.341C47.6989 107.655 48.1572 107.121 48.7443 106.739C49.3352 106.352 50.0246 106.159 50.8125 106.159C51.267 106.159 51.7159 106.235 52.1591 106.386C52.6023 106.538 53.0057 106.784 53.3693 107.125C53.733 107.462 54.0227 107.909 54.2386 108.466C54.4545 109.023 54.5625 109.708 54.5625 110.523V111.091H47.8352V109.932H53.1989C53.1989 109.439 53.1004 109 52.9034 108.614C52.7102 108.227 52.4337 107.922 52.0739 107.699C51.7178 107.475 51.2973 107.364 50.8125 107.364C50.2784 107.364 49.8163 107.496 49.4261 107.761C49.0398 108.023 48.7424 108.364 48.5341 108.784C48.3258 109.205 48.2216 109.655 48.2216 110.136V110.909C48.2216 111.568 48.3352 112.127 48.5625 112.585C48.7936 113.04 49.1136 113.386 49.5227 113.625C49.9318 113.86 50.4072 113.977 50.9489 113.977C51.3011 113.977 51.6193 113.928 51.9034 113.83C52.1913 113.727 52.4394 113.576 52.6477 113.375C52.8561 113.17 53.017 112.917 53.1307 112.614L54.4261 112.977C54.2898 113.417 54.0606 113.803 53.7386 114.136C53.4167 114.466 53.0189 114.723 52.5455 114.909C52.072 115.091 51.5398 115.182 50.9489 115.182ZM56.6023 115V106.273H57.8977V107.636H58.0114C58.1932 107.17 58.4867 106.809 58.892 106.551C59.2973 106.29 59.7841 106.159 60.3523 106.159C60.928 106.159 61.4072 106.29 61.7898 106.551C62.1761 106.809 62.4773 107.17 62.6932 107.636H62.7841C63.0076 107.186 63.3428 106.828 63.7898 106.562C64.2367 106.294 64.7727 106.159 65.3977 106.159C66.178 106.159 66.8163 106.403 67.3125 106.892C67.8087 107.377 68.0568 108.133 68.0568 109.159V115H66.7159V109.159C66.7159 108.515 66.5398 108.055 66.1875 107.778C65.8352 107.502 65.4205 107.364 64.9432 107.364C64.3295 107.364 63.8542 107.549 63.517 107.92C63.1799 108.288 63.0114 108.754 63.0114 109.318V115H61.6477V109.023C61.6477 108.527 61.4867 108.127 61.1648 107.824C60.8428 107.517 60.428 107.364 59.9205 107.364C59.572 107.364 59.2462 107.456 58.9432 107.642C58.6439 107.828 58.4015 108.085 58.2159 108.415C58.0341 108.741 57.9432 109.117 57.9432 109.545V115H56.6023ZM75.0085 115V106.273H76.3494V115H75.0085ZM75.6903 104.818C75.429 104.818 75.2036 104.729 75.0142 104.551C74.8286 104.373 74.7358 104.159 74.7358 103.909C74.7358 103.659 74.8286 103.445 75.0142 103.267C75.2036 103.089 75.429 103 75.6903 103C75.9517 103 76.1752 103.089 76.3608 103.267C76.5502 103.445 76.6449 103.659 76.6449 103.909C76.6449 104.159 76.5502 104.373 76.3608 104.551C76.1752 104.729 75.9517 104.818 75.6903 104.818ZM78.8054 118.273V106.273H80.1009V107.659H80.2599C80.3584 107.508 80.4948 107.314 80.669 107.08C80.8471 106.841 81.1009 106.629 81.4304 106.443C81.7637 106.254 82.2145 106.159 82.7827 106.159C83.5175 106.159 84.1652 106.343 84.7259 106.71C85.2865 107.078 85.724 107.598 86.0384 108.273C86.3527 108.947 86.5099 109.742 86.5099 110.659C86.5099 111.583 86.3527 112.384 86.0384 113.062C85.724 113.737 85.2884 114.259 84.7315 114.631C84.1747 114.998 83.5327 115.182 82.8054 115.182C82.2448 115.182 81.7959 115.089 81.4588 114.903C81.1217 114.714 80.8622 114.5 80.6804 114.261C80.4986 114.019 80.3584 113.818 80.2599 113.659H80.1463V118.273H78.8054ZM80.1236 110.636C80.1236 111.295 80.2202 111.877 80.4134 112.381C80.6065 112.881 80.8887 113.273 81.2599 113.557C81.6312 113.837 82.0857 113.977 82.6236 113.977C83.1842 113.977 83.652 113.83 84.027 113.534C84.4058 113.235 84.6899 112.833 84.8793 112.33C85.0724 111.822 85.169 111.258 85.169 110.636C85.169 110.023 85.0743 109.47 84.8849 108.977C84.6993 108.481 84.4171 108.089 84.0384 107.801C83.6634 107.509 83.1918 107.364 82.6236 107.364C82.0781 107.364 81.6198 107.502 81.2486 107.778C80.8774 108.051 80.5971 108.434 80.4077 108.926C80.2183 109.415 80.1236 109.985 80.1236 110.636ZM94.7372 108.227L93.5327 108.568C93.4569 108.367 93.3452 108.172 93.1974 107.983C93.0535 107.79 92.8565 107.631 92.6065 107.506C92.3565 107.381 92.0365 107.318 91.6463 107.318C91.1122 107.318 90.6671 107.441 90.3111 107.688C89.9588 107.93 89.7827 108.239 89.7827 108.614C89.7827 108.947 89.9039 109.21 90.1463 109.403C90.3887 109.597 90.7675 109.758 91.2827 109.886L92.5781 110.205C93.3584 110.394 93.9399 110.684 94.3224 111.074C94.705 111.46 94.8963 111.958 94.8963 112.568C94.8963 113.068 94.7524 113.515 94.4645 113.909C94.1804 114.303 93.7827 114.614 93.2713 114.841C92.7599 115.068 92.1652 115.182 91.4872 115.182C90.5971 115.182 89.8603 114.989 89.277 114.602C88.6937 114.216 88.3243 113.652 88.169 112.909L89.4418 112.591C89.563 113.061 89.7921 113.413 90.1293 113.648C90.4702 113.883 90.9152 114 91.4645 114C92.0895 114 92.5857 113.867 92.9531 113.602C93.3243 113.333 93.5099 113.011 93.5099 112.636C93.5099 112.333 93.4039 112.08 93.1918 111.875C92.9796 111.667 92.6539 111.511 92.2145 111.409L90.7599 111.068C89.9607 110.879 89.3736 110.585 88.9986 110.188C88.6274 109.786 88.4418 109.284 88.4418 108.682C88.4418 108.189 88.58 107.754 88.8565 107.375C89.1368 106.996 89.5175 106.699 89.9986 106.483C90.4834 106.267 91.0327 106.159 91.6463 106.159C92.5099 106.159 93.188 106.348 93.6804 106.727C94.1766 107.106 94.5289 107.606 94.7372 108.227ZM102.415 111.432V106.273H103.756V115H102.415V113.523H102.324C102.119 113.966 101.801 114.343 101.369 114.653C100.938 114.96 100.392 115.114 99.733 115.114C99.1875 115.114 98.7027 114.994 98.2784 114.756C97.8542 114.513 97.5208 114.15 97.2784 113.665C97.036 113.176 96.9148 112.561 96.9148 111.818V106.273H98.2557V111.727C98.2557 112.364 98.4337 112.871 98.7898 113.25C99.1496 113.629 99.608 113.818 100.165 113.818C100.498 113.818 100.837 113.733 101.182 113.562C101.53 113.392 101.822 113.131 102.057 112.778C102.295 112.426 102.415 111.977 102.415 111.432ZM106.212 115V106.273H107.507V107.636H107.621C107.803 107.17 108.096 106.809 108.501 106.551C108.907 106.29 109.393 106.159 109.962 106.159C110.537 106.159 111.017 106.29 111.399 106.551C111.786 106.809 112.087 107.17 112.303 107.636H112.393C112.617 107.186 112.952 106.828 113.399 106.562C113.846 106.294 114.382 106.159 115.007 106.159C115.787 106.159 116.426 106.403 116.922 106.892C117.418 107.377 117.666 108.133 117.666 109.159V115H116.325V109.159C116.325 108.515 116.149 108.055 115.797 107.778C115.445 107.502 115.03 107.364 114.553 107.364C113.939 107.364 113.464 107.549 113.126 107.92C112.789 108.288 112.621 108.754 112.621 109.318V115H111.257V109.023C111.257 108.527 111.096 108.127 110.774 107.824C110.452 107.517 110.037 107.364 109.53 107.364C109.181 107.364 108.856 107.456 108.553 107.642C108.253 107.828 108.011 108.085 107.825 108.415C107.643 108.741 107.553 109.117 107.553 109.545V115H106.212ZM127.913 115.182C127.186 115.182 126.544 114.998 125.987 114.631C125.43 114.259 124.995 113.737 124.68 113.062C124.366 112.384 124.209 111.583 124.209 110.659C124.209 109.742 124.366 108.947 124.68 108.273C124.995 107.598 125.432 107.078 125.993 106.71C126.554 106.343 127.201 106.159 127.936 106.159C128.504 106.159 128.953 106.254 129.283 106.443C129.616 106.629 129.87 106.841 130.044 107.08C130.222 107.314 130.36 107.508 130.459 107.659H130.572V103.364H131.913V115H130.618V113.659H130.459C130.36 113.818 130.22 114.019 130.038 114.261C129.857 114.5 129.597 114.714 129.26 114.903C128.923 115.089 128.474 115.182 127.913 115.182ZM128.095 113.977C128.633 113.977 129.088 113.837 129.459 113.557C129.83 113.273 130.112 112.881 130.305 112.381C130.499 111.877 130.595 111.295 130.595 110.636C130.595 109.985 130.5 109.415 130.311 108.926C130.122 108.434 129.841 108.051 129.47 107.778C129.099 107.502 128.641 107.364 128.095 107.364C127.527 107.364 127.054 107.509 126.675 107.801C126.3 108.089 126.018 108.481 125.828 108.977C125.643 109.47 125.55 110.023 125.55 110.636C125.55 111.258 125.644 111.822 125.834 112.33C126.027 112.833 126.311 113.235 126.686 113.534C127.065 113.83 127.535 113.977 128.095 113.977ZM138.101 115.182C137.313 115.182 136.622 114.994 136.027 114.619C135.436 114.244 134.974 113.72 134.641 113.045C134.311 112.371 134.146 111.583 134.146 110.682C134.146 109.773 134.311 108.979 134.641 108.301C134.974 107.623 135.436 107.097 136.027 106.722C136.622 106.347 137.313 106.159 138.101 106.159C138.889 106.159 139.578 106.347 140.169 106.722C140.764 107.097 141.226 107.623 141.555 108.301C141.889 108.979 142.055 109.773 142.055 110.682C142.055 111.583 141.889 112.371 141.555 113.045C141.226 113.72 140.764 114.244 140.169 114.619C139.578 114.994 138.889 115.182 138.101 115.182ZM138.101 113.977C138.699 113.977 139.192 113.824 139.578 113.517C139.964 113.21 140.25 112.807 140.436 112.307C140.622 111.807 140.714 111.265 140.714 110.682C140.714 110.098 140.622 109.555 140.436 109.051C140.25 108.547 139.964 108.14 139.578 107.83C139.192 107.519 138.699 107.364 138.101 107.364C137.502 107.364 137.01 107.519 136.624 107.83C136.237 108.14 135.951 108.547 135.766 109.051C135.58 109.555 135.487 110.098 135.487 110.682C135.487 111.265 135.58 111.807 135.766 112.307C135.951 112.807 136.237 113.21 136.624 113.517C137.01 113.824 137.502 113.977 138.101 113.977ZM144.102 103.364H145.443V112.727C145.443 113.152 145.491 113.449 145.585 113.619C145.68 113.79 145.875 113.871 146.17 113.864C146.33 113.856 146.447 113.845 146.523 113.83C146.602 113.811 146.674 113.792 146.739 113.773L147.011 114.932C146.894 114.966 146.746 114.996 146.568 115.023C146.39 115.053 146.205 115.068 146.011 115.068C145.375 115.068 144.898 114.894 144.58 114.545C144.261 114.197 144.102 113.712 144.102 113.091V103.364ZM151.788 115.182C151 115.182 150.309 114.994 149.714 114.619C149.124 114.244 148.661 113.72 148.328 113.045C147.999 112.371 147.834 111.583 147.834 110.682C147.834 109.773 147.999 108.979 148.328 108.301C148.661 107.623 149.124 107.097 149.714 106.722C150.309 106.347 151 106.159 151.788 106.159C152.576 106.159 153.266 106.347 153.857 106.722C154.451 107.097 154.913 107.623 155.243 108.301C155.576 108.979 155.743 109.773 155.743 110.682C155.743 111.583 155.576 112.371 155.243 113.045C154.913 113.72 154.451 114.244 153.857 114.619C153.266 114.994 152.576 115.182 151.788 115.182ZM151.788 113.977C152.387 113.977 152.879 113.824 153.266 113.517C153.652 113.21 153.938 112.807 154.124 112.307C154.309 111.807 154.402 111.265 154.402 110.682C154.402 110.098 154.309 109.555 154.124 109.051C153.938 108.547 153.652 108.14 153.266 107.83C152.879 107.519 152.387 107.364 151.788 107.364C151.19 107.364 150.697 107.519 150.311 107.83C149.925 108.14 149.639 108.547 149.453 109.051C149.268 109.555 149.175 110.098 149.175 110.682C149.175 111.265 149.268 111.807 149.453 112.307C149.639 112.807 149.925 113.21 150.311 113.517C150.697 113.824 151.19 113.977 151.788 113.977ZM157.79 115V106.273H159.085V107.591H159.176C159.331 107.159 159.617 106.809 160.034 106.54C160.451 106.271 160.922 106.136 161.449 106.136C161.691 106.136 161.903 106.165 162.085 106.222C162.267 106.278 162.426 106.356 162.562 106.455L162.108 107.591C162.013 107.542 161.902 107.504 161.773 107.477C161.648 107.447 161.502 107.432 161.335 107.432C160.911 107.432 160.532 107.521 160.199 107.699C159.869 107.877 159.608 108.119 159.415 108.426C159.225 108.733 159.131 109.083 159.131 109.477V115H157.79ZM174.612 108.227L173.408 108.568C173.332 108.367 173.22 108.172 173.072 107.983C172.929 107.79 172.732 107.631 172.482 107.506C172.232 107.381 171.911 107.318 171.521 107.318C170.987 107.318 170.542 107.441 170.186 107.688C169.834 107.93 169.658 108.239 169.658 108.614C169.658 108.947 169.779 109.21 170.021 109.403C170.264 109.597 170.643 109.758 171.158 109.886L172.453 110.205C173.233 110.394 173.815 110.684 174.197 111.074C174.58 111.46 174.771 111.958 174.771 112.568C174.771 113.068 174.627 113.515 174.339 113.909C174.055 114.303 173.658 114.614 173.146 114.841C172.635 115.068 172.04 115.182 171.362 115.182C170.472 115.182 169.735 114.989 169.152 114.602C168.569 114.216 168.199 113.652 168.044 112.909L169.317 112.591C169.438 113.061 169.667 113.413 170.004 113.648C170.345 113.883 170.79 114 171.339 114C171.964 114 172.461 113.867 172.828 113.602C173.199 113.333 173.385 113.011 173.385 112.636C173.385 112.333 173.279 112.08 173.067 111.875C172.855 111.667 172.529 111.511 172.089 111.409L170.635 111.068C169.836 110.879 169.249 110.585 168.874 110.188C168.502 109.786 168.317 109.284 168.317 108.682C168.317 108.189 168.455 107.754 168.732 107.375C169.012 106.996 169.393 106.699 169.874 106.483C170.358 106.267 170.908 106.159 171.521 106.159C172.385 106.159 173.063 106.348 173.555 106.727C174.052 107.106 174.404 107.606 174.612 108.227ZM176.79 115V106.273H178.131V115H176.79ZM177.472 104.818C177.21 104.818 176.985 104.729 176.795 104.551C176.61 104.373 176.517 104.159 176.517 103.909C176.517 103.659 176.61 103.445 176.795 103.267C176.985 103.089 177.21 103 177.472 103C177.733 103 177.956 103.089 178.142 103.267C178.331 103.445 178.426 103.659 178.426 103.909C178.426 104.159 178.331 104.373 178.142 104.551C177.956 104.729 177.733 104.818 177.472 104.818ZM184.382 106.273V107.409H179.859V106.273H184.382ZM181.178 104.182H182.518V112.5C182.518 112.879 182.573 113.163 182.683 113.352C182.797 113.538 182.941 113.663 183.115 113.727C183.293 113.788 183.481 113.818 183.678 113.818C183.825 113.818 183.946 113.811 184.041 113.795C184.136 113.777 184.212 113.761 184.268 113.75L184.541 114.955C184.45 114.989 184.323 115.023 184.161 115.057C183.998 115.095 183.791 115.114 183.541 115.114C183.162 115.114 182.791 115.032 182.428 114.869C182.068 114.706 181.768 114.458 181.53 114.125C181.295 113.792 181.178 113.371 181.178 112.864V104.182ZM194.195 115.182C193.467 115.182 192.825 114.998 192.268 114.631C191.712 114.259 191.276 113.737 190.962 113.062C190.647 112.384 190.49 111.583 190.49 110.659C190.49 109.742 190.647 108.947 190.962 108.273C191.276 107.598 191.714 107.078 192.274 106.71C192.835 106.343 193.482 106.159 194.217 106.159C194.786 106.159 195.234 106.254 195.564 106.443C195.897 106.629 196.151 106.841 196.325 107.08C196.503 107.314 196.642 107.508 196.74 107.659H196.854V106.273H198.195V115H196.899V113.659H196.74C196.642 113.818 196.501 114.019 196.32 114.261C196.138 114.5 195.878 114.714 195.541 114.903C195.204 115.089 194.755 115.182 194.195 115.182ZM194.376 113.977C194.914 113.977 195.369 113.837 195.74 113.557C196.111 113.273 196.393 112.881 196.587 112.381C196.78 111.877 196.876 111.295 196.876 110.636C196.876 109.985 196.782 109.415 196.592 108.926C196.403 108.434 196.123 108.051 195.751 107.778C195.38 107.502 194.922 107.364 194.376 107.364C193.808 107.364 193.335 107.509 192.956 107.801C192.581 108.089 192.299 108.481 192.109 108.977C191.924 109.47 191.831 110.023 191.831 110.636C191.831 111.258 191.926 111.822 192.115 112.33C192.308 112.833 192.592 113.235 192.967 113.534C193.346 113.83 193.816 113.977 194.376 113.977ZM200.837 115V106.273H202.132V107.636H202.246C202.428 107.17 202.721 106.809 203.126 106.551C203.532 106.29 204.018 106.159 204.587 106.159C205.162 106.159 205.642 106.29 206.024 106.551C206.411 106.809 206.712 107.17 206.928 107.636H207.018C207.242 107.186 207.577 106.828 208.024 106.562C208.471 106.294 209.007 106.159 209.632 106.159C210.412 106.159 211.051 106.403 211.547 106.892C212.043 107.377 212.291 108.133 212.291 109.159V115H210.95V109.159C210.95 108.515 210.774 108.055 210.422 107.778C210.07 107.502 209.655 107.364 209.178 107.364C208.564 107.364 208.089 107.549 207.751 107.92C207.414 108.288 207.246 108.754 207.246 109.318V115H205.882V109.023C205.882 108.527 205.721 108.127 205.399 107.824C205.077 107.517 204.662 107.364 204.155 107.364C203.806 107.364 203.481 107.456 203.178 107.642C202.878 107.828 202.636 108.085 202.45 108.415C202.268 108.741 202.178 109.117 202.178 109.545V115H200.837ZM218.402 115.182C217.561 115.182 216.836 114.996 216.226 114.625C215.62 114.25 215.152 113.727 214.822 113.057C214.497 112.383 214.334 111.598 214.334 110.705C214.334 109.811 214.497 109.023 214.822 108.341C215.152 107.655 215.61 107.121 216.197 106.739C216.788 106.352 217.478 106.159 218.266 106.159C218.72 106.159 219.169 106.235 219.612 106.386C220.055 106.538 220.459 106.784 220.822 107.125C221.186 107.462 221.476 107.909 221.692 108.466C221.908 109.023 222.016 109.708 222.016 110.523V111.091H215.288V109.932H220.652C220.652 109.439 220.554 109 220.357 108.614C220.163 108.227 219.887 107.922 219.527 107.699C219.171 107.475 218.75 107.364 218.266 107.364C217.732 107.364 217.269 107.496 216.879 107.761C216.493 108.023 216.196 108.364 215.987 108.784C215.779 109.205 215.675 109.655 215.675 110.136V110.909C215.675 111.568 215.788 112.127 216.016 112.585C216.247 113.04 216.567 113.386 216.976 113.625C217.385 113.86 217.86 113.977 218.402 113.977C218.754 113.977 219.072 113.928 219.357 113.83C219.644 113.727 219.893 113.576 220.101 113.375C220.309 113.17 220.47 112.917 220.584 112.614L221.879 112.977C221.743 113.417 221.514 113.803 221.192 114.136C220.87 114.466 220.472 114.723 219.999 114.909C219.525 115.091 218.993 115.182 218.402 115.182ZM227.851 106.273V107.409H223.328V106.273H227.851ZM224.646 104.182H225.987V112.5C225.987 112.879 226.042 113.163 226.152 113.352C226.266 113.538 226.41 113.663 226.584 113.727C226.762 113.788 226.949 113.818 227.146 113.818C227.294 113.818 227.415 113.811 227.51 113.795C227.605 113.777 227.68 113.761 227.737 113.75L228.01 114.955C227.919 114.989 227.792 115.023 227.629 115.057C227.466 115.095 227.26 115.114 227.01 115.114C226.631 115.114 226.26 115.032 225.896 114.869C225.536 114.706 225.237 114.458 224.999 114.125C224.764 113.792 224.646 113.371 224.646 112.864V104.182ZM231.868 113.409L231.777 114.023C231.713 114.455 231.614 114.917 231.482 115.409C231.353 115.902 231.218 116.366 231.078 116.801C230.938 117.237 230.822 117.583 230.732 117.841H229.709C229.758 117.598 229.822 117.278 229.902 116.881C229.982 116.483 230.061 116.038 230.141 115.545C230.224 115.057 230.292 114.557 230.345 114.045L230.413 113.409H231.868ZM242.398 115.182C241.58 115.182 240.875 114.989 240.284 114.602C239.693 114.216 239.239 113.684 238.92 113.006C238.602 112.328 238.443 111.553 238.443 110.682C238.443 109.795 238.606 109.013 238.932 108.335C239.261 107.653 239.72 107.121 240.307 106.739C240.898 106.352 241.587 106.159 242.375 106.159C242.989 106.159 243.542 106.273 244.034 106.5C244.527 106.727 244.93 107.045 245.244 107.455C245.559 107.864 245.754 108.341 245.83 108.886H244.489C244.386 108.489 244.159 108.136 243.807 107.83C243.458 107.519 242.989 107.364 242.398 107.364C241.875 107.364 241.417 107.5 241.023 107.773C240.633 108.042 240.328 108.422 240.108 108.915C239.892 109.403 239.784 109.977 239.784 110.636C239.784 111.311 239.89 111.898 240.102 112.398C240.318 112.898 240.621 113.286 241.011 113.562C241.405 113.839 241.867 113.977 242.398 113.977C242.746 113.977 243.062 113.917 243.347 113.795C243.631 113.674 243.871 113.5 244.068 113.273C244.265 113.045 244.405 112.773 244.489 112.455H245.83C245.754 112.97 245.566 113.434 245.267 113.847C244.972 114.256 244.58 114.581 244.091 114.824C243.606 115.062 243.042 115.182 242.398 115.182ZM251.335 115.182C250.547 115.182 249.856 114.994 249.261 114.619C248.67 114.244 248.208 113.72 247.875 113.045C247.545 112.371 247.381 111.583 247.381 110.682C247.381 109.773 247.545 108.979 247.875 108.301C248.208 107.623 248.67 107.097 249.261 106.722C249.856 106.347 250.547 106.159 251.335 106.159C252.123 106.159 252.813 106.347 253.403 106.722C253.998 107.097 254.46 107.623 254.79 108.301C255.123 108.979 255.29 109.773 255.29 110.682C255.29 111.583 255.123 112.371 254.79 113.045C254.46 113.72 253.998 114.244 253.403 114.619C252.813 114.994 252.123 115.182 251.335 115.182ZM251.335 113.977C251.934 113.977 252.426 113.824 252.812 113.517C253.199 113.21 253.485 112.807 253.67 112.307C253.856 111.807 253.949 111.265 253.949 110.682C253.949 110.098 253.856 109.555 253.67 109.051C253.485 108.547 253.199 108.14 252.812 107.83C252.426 107.519 251.934 107.364 251.335 107.364C250.737 107.364 250.244 107.519 249.858 107.83C249.472 108.14 249.186 108.547 249 109.051C248.814 109.555 248.722 110.098 248.722 110.682C248.722 111.265 248.814 111.807 249 112.307C249.186 112.807 249.472 113.21 249.858 113.517C250.244 113.824 250.737 113.977 251.335 113.977ZM258.678 109.75V115H257.337V106.273H258.632V107.636H258.746C258.95 107.193 259.261 106.837 259.678 106.568C260.094 106.295 260.632 106.159 261.291 106.159C261.882 106.159 262.399 106.28 262.842 106.523C263.286 106.761 263.63 107.125 263.876 107.614C264.123 108.098 264.246 108.712 264.246 109.455V115H262.905V109.545C262.905 108.86 262.727 108.326 262.371 107.943C262.015 107.557 261.526 107.364 260.905 107.364C260.477 107.364 260.094 107.456 259.757 107.642C259.424 107.828 259.161 108.098 258.967 108.455C258.774 108.811 258.678 109.242 258.678 109.75ZM272.878 108.227L271.673 108.568C271.598 108.367 271.486 108.172 271.338 107.983C271.194 107.79 270.997 107.631 270.747 107.506C270.497 107.381 270.177 107.318 269.787 107.318C269.253 107.318 268.808 107.441 268.452 107.688C268.099 107.93 267.923 108.239 267.923 108.614C267.923 108.947 268.045 109.21 268.287 109.403C268.529 109.597 268.908 109.758 269.423 109.886L270.719 110.205C271.499 110.394 272.08 110.684 272.463 111.074C272.846 111.46 273.037 111.958 273.037 112.568C273.037 113.068 272.893 113.515 272.605 113.909C272.321 114.303 271.923 114.614 271.412 114.841C270.901 115.068 270.306 115.182 269.628 115.182C268.738 115.182 268.001 114.989 267.418 114.602C266.834 114.216 266.465 113.652 266.31 112.909L267.582 112.591C267.704 113.061 267.933 113.413 268.27 113.648C268.611 113.883 269.056 114 269.605 114C270.23 114 270.726 113.867 271.094 113.602C271.465 113.333 271.651 113.011 271.651 112.636C271.651 112.333 271.545 112.08 271.332 111.875C271.12 111.667 270.795 111.511 270.355 111.409L268.901 111.068C268.101 110.879 267.514 110.585 267.139 110.188C266.768 109.786 266.582 109.284 266.582 108.682C266.582 108.189 266.721 107.754 266.997 107.375C267.277 106.996 267.658 106.699 268.139 106.483C268.624 106.267 269.173 106.159 269.787 106.159C270.651 106.159 271.329 106.348 271.821 106.727C272.317 107.106 272.67 107.606 272.878 108.227ZM278.714 115.182C277.874 115.182 277.148 114.996 276.538 114.625C275.932 114.25 275.464 113.727 275.135 113.057C274.809 112.383 274.646 111.598 274.646 110.705C274.646 109.811 274.809 109.023 275.135 108.341C275.464 107.655 275.923 107.121 276.51 106.739C277.101 106.352 277.79 106.159 278.578 106.159C279.033 106.159 279.482 106.235 279.925 106.386C280.368 106.538 280.771 106.784 281.135 107.125C281.499 107.462 281.788 107.909 282.004 108.466C282.22 109.023 282.328 109.708 282.328 110.523V111.091H275.601V109.932H280.964C280.964 109.439 280.866 109 280.669 108.614C280.476 108.227 280.199 107.922 279.839 107.699C279.483 107.475 279.063 107.364 278.578 107.364C278.044 107.364 277.582 107.496 277.192 107.761C276.805 108.023 276.508 108.364 276.3 108.784C276.091 109.205 275.987 109.655 275.987 110.136V110.909C275.987 111.568 276.101 112.127 276.328 112.585C276.559 113.04 276.879 113.386 277.288 113.625C277.697 113.86 278.173 113.977 278.714 113.977C279.067 113.977 279.385 113.928 279.669 113.83C279.957 113.727 280.205 113.576 280.413 113.375C280.622 113.17 280.783 112.917 280.896 112.614L282.192 112.977C282.055 113.417 281.826 113.803 281.504 114.136C281.182 114.466 280.785 114.723 280.311 114.909C279.838 115.091 279.305 115.182 278.714 115.182ZM287.913 115.182C287.095 115.182 286.391 114.989 285.8 114.602C285.209 114.216 284.754 113.684 284.436 113.006C284.118 112.328 283.959 111.553 283.959 110.682C283.959 109.795 284.122 109.013 284.447 108.335C284.777 107.653 285.235 107.121 285.822 106.739C286.413 106.352 287.103 106.159 287.891 106.159C288.504 106.159 289.057 106.273 289.55 106.5C290.042 106.727 290.446 107.045 290.76 107.455C291.074 107.864 291.269 108.341 291.345 108.886H290.004C289.902 108.489 289.675 108.136 289.322 107.83C288.974 107.519 288.504 107.364 287.913 107.364C287.391 107.364 286.932 107.5 286.538 107.773C286.148 108.042 285.843 108.422 285.624 108.915C285.408 109.403 285.3 109.977 285.3 110.636C285.3 111.311 285.406 111.898 285.618 112.398C285.834 112.898 286.137 113.286 286.527 113.562C286.921 113.839 287.383 113.977 287.913 113.977C288.262 113.977 288.578 113.917 288.862 113.795C289.146 113.674 289.387 113.5 289.584 113.273C289.781 113.045 289.921 112.773 290.004 112.455H291.345C291.269 112.97 291.082 113.434 290.783 113.847C290.487 114.256 290.095 114.581 289.607 114.824C289.122 115.062 288.557 115.182 287.913 115.182ZM297.101 106.273V107.409H292.578V106.273H297.101ZM293.896 104.182H295.237V112.5C295.237 112.879 295.292 113.163 295.402 113.352C295.516 113.538 295.66 113.663 295.834 113.727C296.012 113.788 296.199 113.818 296.396 113.818C296.544 113.818 296.665 113.811 296.76 113.795C296.855 113.777 296.93 113.761 296.987 113.75L297.26 114.955C297.169 114.989 297.042 115.023 296.879 115.057C296.716 115.095 296.51 115.114 296.26 115.114C295.881 115.114 295.51 115.032 295.146 114.869C294.786 114.706 294.487 114.458 294.249 114.125C294.014 113.792 293.896 113.371 293.896 112.864V104.182ZM302.683 115.182C301.842 115.182 301.117 114.996 300.507 114.625C299.901 114.25 299.433 113.727 299.104 113.057C298.778 112.383 298.615 111.598 298.615 110.705C298.615 109.811 298.778 109.023 299.104 108.341C299.433 107.655 299.892 107.121 300.479 106.739C301.07 106.352 301.759 106.159 302.547 106.159C303.001 106.159 303.45 106.235 303.893 106.386C304.337 106.538 304.74 106.784 305.104 107.125C305.467 107.462 305.757 107.909 305.973 108.466C306.189 109.023 306.297 109.708 306.297 110.523V111.091H299.57V109.932H304.933C304.933 109.439 304.835 109 304.638 108.614C304.445 108.227 304.168 107.922 303.808 107.699C303.452 107.475 303.032 107.364 302.547 107.364C302.013 107.364 301.551 107.496 301.161 107.761C300.774 108.023 300.477 108.364 300.268 108.784C300.06 109.205 299.956 109.655 299.956 110.136V110.909C299.956 111.568 300.07 112.127 300.297 112.585C300.528 113.04 300.848 113.386 301.257 113.625C301.666 113.86 302.142 113.977 302.683 113.977C303.036 113.977 303.354 113.928 303.638 113.83C303.926 113.727 304.174 113.576 304.382 113.375C304.59 113.17 304.751 112.917 304.865 112.614L306.161 112.977C306.024 113.417 305.795 113.803 305.473 114.136C305.151 114.466 304.753 114.723 304.28 114.909C303.806 115.091 303.274 115.182 302.683 115.182ZM312.132 106.273V107.409H307.609V106.273H312.132ZM308.928 104.182H310.268V112.5C310.268 112.879 310.323 113.163 310.433 113.352C310.547 113.538 310.691 113.663 310.865 113.727C311.043 113.788 311.231 113.818 311.428 113.818C311.575 113.818 311.696 113.811 311.791 113.795C311.886 113.777 311.962 113.761 312.018 113.75L312.291 114.955C312.2 114.989 312.073 115.023 311.911 115.057C311.748 115.095 311.541 115.114 311.291 115.114C310.912 115.114 310.541 115.032 310.178 114.869C309.818 114.706 309.518 114.458 309.28 114.125C309.045 113.792 308.928 113.371 308.928 112.864V104.182ZM319.649 111.432V106.273H320.99V115H319.649V113.523H319.558C319.354 113.966 319.036 114.343 318.604 114.653C318.172 114.96 317.626 115.114 316.967 115.114C316.422 115.114 315.937 114.994 315.513 114.756C315.089 114.513 314.755 114.15 314.513 113.665C314.27 113.176 314.149 112.561 314.149 111.818V106.273H315.49V111.727C315.49 112.364 315.668 112.871 316.024 113.25C316.384 113.629 316.842 113.818 317.399 113.818C317.732 113.818 318.071 113.733 318.416 113.562C318.765 113.392 319.056 113.131 319.291 112.778C319.53 112.426 319.649 111.977 319.649 111.432ZM323.446 115V106.273H324.741V107.591H324.832C324.988 107.159 325.274 106.809 325.69 106.54C326.107 106.271 326.579 106.136 327.105 106.136C327.348 106.136 327.56 106.165 327.741 106.222C327.923 106.278 328.082 106.356 328.219 106.455L327.764 107.591C327.67 107.542 327.558 107.504 327.429 107.477C327.304 107.447 327.158 107.432 326.991 107.432C326.567 107.432 326.188 107.521 325.855 107.699C325.526 107.877 325.264 108.119 325.071 108.426C324.882 108.733 324.787 109.083 324.787 109.477V115H323.446ZM11.3118 141.182C10.5845 141.182 9.94247 140.998 9.38565 140.631C8.82884 140.259 8.39323 139.737 8.07884 139.062C7.76444 138.384 7.60724 137.583 7.60724 136.659C7.60724 135.742 7.76444 134.947 8.07884 134.273C8.39323 133.598 8.83073 133.078 9.39134 132.71C9.95194 132.343 10.5997 132.159 11.3345 132.159C11.9027 132.159 12.3516 132.254 12.6811 132.443C13.0144 132.629 13.2682 132.841 13.4425 133.08C13.6205 133.314 13.7588 133.508 13.8572 133.659H13.9709V132.273H15.3118V141H14.0163V139.659H13.8572C13.7588 139.818 13.6186 140.019 13.4368 140.261C13.255 140.5 12.9955 140.714 12.6584 140.903C12.3213 141.089 11.8724 141.182 11.3118 141.182ZM11.4936 139.977C12.0315 139.977 12.486 139.837 12.8572 139.557C13.2285 139.273 13.5107 138.881 13.7038 138.381C13.897 137.877 13.9936 137.295 13.9936 136.636C13.9936 135.985 13.8989 135.415 13.7095 134.926C13.5201 134.434 13.2398 134.051 12.8686 133.778C12.4974 133.502 12.0391 133.364 11.4936 133.364C10.9254 133.364 10.4519 133.509 10.0732 133.801C9.69815 134.089 9.41596 134.481 9.22656 134.977C9.04096 135.47 8.94815 136.023 8.94815 136.636C8.94815 137.258 9.04285 137.822 9.23224 138.33C9.42543 138.833 9.70952 139.235 10.0845 139.534C10.4633 139.83 10.933 139.977 11.4936 139.977ZM21.2493 141.182C20.522 141.182 19.88 140.998 19.3232 140.631C18.7663 140.259 18.3307 139.737 18.0163 139.062C17.7019 138.384 17.5447 137.583 17.5447 136.659C17.5447 135.742 17.7019 134.947 18.0163 134.273C18.3307 133.598 18.7682 133.078 19.3288 132.71C19.8894 132.343 20.5372 132.159 21.272 132.159C21.8402 132.159 22.2891 132.254 22.6186 132.443C22.9519 132.629 23.2057 132.841 23.38 133.08C23.558 133.314 23.6963 133.508 23.7947 133.659H23.9084V129.364H25.2493V141H23.9538V139.659H23.7947C23.6963 139.818 23.5561 140.019 23.3743 140.261C23.1925 140.5 22.933 140.714 22.5959 140.903C22.2588 141.089 21.8099 141.182 21.2493 141.182ZM21.4311 139.977C21.969 139.977 22.4235 139.837 22.7947 139.557C23.166 139.273 23.4482 138.881 23.6413 138.381C23.8345 137.877 23.9311 137.295 23.9311 136.636C23.9311 135.985 23.8364 135.415 23.647 134.926C23.4576 134.434 23.1773 134.051 22.8061 133.778C22.4349 133.502 21.9766 133.364 21.4311 133.364C20.8629 133.364 20.3894 133.509 20.0107 133.801C19.6357 134.089 19.3535 134.481 19.1641 134.977C18.9785 135.47 18.8857 136.023 18.8857 136.636C18.8857 137.258 18.9804 137.822 19.1697 138.33C19.3629 138.833 19.647 139.235 20.022 139.534C20.4008 139.83 20.8705 139.977 21.4311 139.977ZM27.8913 141V132.273H29.2322V141H27.8913ZM28.5732 130.818C28.3118 130.818 28.0864 130.729 27.897 130.551C27.7114 130.373 27.6186 130.159 27.6186 129.909C27.6186 129.659 27.7114 129.445 27.897 129.267C28.0864 129.089 28.3118 129 28.5732 129C28.8345 129 29.058 129.089 29.2436 129.267C29.433 129.445 29.5277 129.659 29.5277 129.909C29.5277 130.159 29.433 130.373 29.2436 130.551C29.058 130.729 28.8345 130.818 28.5732 130.818ZM31.6882 144.273V132.273H32.9837V133.659H33.1428C33.2412 133.508 33.3776 133.314 33.5518 133.08C33.7299 132.841 33.9837 132.629 34.3132 132.443C34.6465 132.254 35.0973 132.159 35.6655 132.159C36.4003 132.159 37.0481 132.343 37.6087 132.71C38.1693 133.078 38.6068 133.598 38.9212 134.273C39.2356 134.947 39.3928 135.742 39.3928 136.659C39.3928 137.583 39.2356 138.384 38.9212 139.062C38.6068 139.737 38.1712 140.259 37.6143 140.631C37.0575 140.998 36.4155 141.182 35.6882 141.182C35.1276 141.182 34.6787 141.089 34.3416 140.903C34.0045 140.714 33.745 140.5 33.5632 140.261C33.3814 140.019 33.2412 139.818 33.1428 139.659H33.0291V144.273H31.6882ZM33.0064 136.636C33.0064 137.295 33.103 137.877 33.2962 138.381C33.4893 138.881 33.7715 139.273 34.1428 139.557C34.514 139.837 34.9685 139.977 35.5064 139.977C36.067 139.977 36.5348 139.83 36.9098 139.534C37.2886 139.235 37.5727 138.833 37.7621 138.33C37.9553 137.822 38.0518 137.258 38.0518 136.636C38.0518 136.023 37.9571 135.47 37.7678 134.977C37.5821 134.481 37.3 134.089 36.9212 133.801C36.5462 133.509 36.0746 133.364 35.5064 133.364C34.9609 133.364 34.5026 133.502 34.1314 133.778C33.7602 134.051 33.4799 134.434 33.2905 134.926C33.1011 135.415 33.0064 135.985 33.0064 136.636ZM41.4382 141V132.273H42.7791V141H41.4382ZM42.12 130.818C41.8587 130.818 41.6333 130.729 41.4439 130.551C41.2583 130.373 41.1655 130.159 41.1655 129.909C41.1655 129.659 41.2583 129.445 41.4439 129.267C41.6333 129.089 41.8587 129 42.12 129C42.3814 129 42.6049 129.089 42.7905 129.267C42.9799 129.445 43.0746 129.659 43.0746 129.909C43.0746 130.159 42.9799 130.373 42.7905 130.551C42.6049 130.729 42.3814 130.818 42.12 130.818ZM51.4169 134.227L50.2124 134.568C50.1366 134.367 50.0249 134.172 49.8771 133.983C49.7332 133.79 49.5362 133.631 49.2862 133.506C49.0362 133.381 48.7161 133.318 48.326 133.318C47.7919 133.318 47.3468 133.441 46.9908 133.688C46.6385 133.93 46.4624 134.239 46.4624 134.614C46.4624 134.947 46.5836 135.21 46.826 135.403C47.0684 135.597 47.4472 135.758 47.9624 135.886L49.2578 136.205C50.0381 136.394 50.6196 136.684 51.0021 137.074C51.3847 137.46 51.576 137.958 51.576 138.568C51.576 139.068 51.4321 139.515 51.1442 139.909C50.8601 140.303 50.4624 140.614 49.951 140.841C49.4396 141.068 48.8449 141.182 48.1669 141.182C47.2768 141.182 46.54 140.989 45.9567 140.602C45.3733 140.216 45.004 139.652 44.8487 138.909L46.1214 138.591C46.2427 139.061 46.4718 139.413 46.8089 139.648C47.1499 139.883 47.5949 140 48.1442 140C48.7692 140 49.2654 139.867 49.6328 139.602C50.004 139.333 50.1896 139.011 50.1896 138.636C50.1896 138.333 50.0836 138.08 49.8714 137.875C49.6593 137.667 49.3336 137.511 48.8942 137.409L47.4396 137.068C46.6404 136.879 46.0533 136.585 45.6783 136.188C45.3071 135.786 45.1214 135.284 45.1214 134.682C45.1214 134.189 45.2597 133.754 45.5362 133.375C45.8165 132.996 46.1972 132.699 46.6783 132.483C47.1631 132.267 47.7124 132.159 48.326 132.159C49.1896 132.159 49.8677 132.348 50.3601 132.727C50.8563 133.106 51.2086 133.606 51.4169 134.227ZM57.1399 141.182C56.3217 141.182 55.6172 140.989 55.0263 140.602C54.4354 140.216 53.9808 139.684 53.6626 139.006C53.3445 138.328 53.1854 137.553 53.1854 136.682C53.1854 135.795 53.3482 135.013 53.674 134.335C54.0036 133.653 54.4619 133.121 55.049 132.739C55.6399 132.352 56.3293 132.159 57.1172 132.159C57.7308 132.159 58.2839 132.273 58.7763 132.5C59.2687 132.727 59.6721 133.045 59.9865 133.455C60.3009 133.864 60.496 134.341 60.5717 134.886H59.2308C59.1286 134.489 58.9013 134.136 58.549 133.83C58.2005 133.519 57.7308 133.364 57.1399 133.364C56.6172 133.364 56.1589 133.5 55.7649 133.773C55.3748 134.042 55.0698 134.422 54.8501 134.915C54.6342 135.403 54.5263 135.977 54.5263 136.636C54.5263 137.311 54.6323 137.898 54.8445 138.398C55.0604 138.898 55.3634 139.286 55.7536 139.562C56.1475 139.839 56.6096 139.977 57.1399 139.977C57.4884 139.977 57.8047 139.917 58.0888 139.795C58.3729 139.674 58.6134 139.5 58.8104 139.273C59.0073 139.045 59.1475 138.773 59.2308 138.455H60.5717C60.496 138.97 60.3085 139.434 60.0092 139.847C59.7138 140.256 59.3217 140.581 58.8331 140.824C58.3482 141.062 57.7839 141.182 57.1399 141.182ZM62.532 141V132.273H63.8729V141H62.532ZM63.2138 130.818C62.9524 130.818 62.727 130.729 62.5376 130.551C62.352 130.373 62.2592 130.159 62.2592 129.909C62.2592 129.659 62.352 129.445 62.5376 129.267C62.727 129.089 62.9524 129 63.2138 129C63.4751 129 63.6986 129.089 63.8842 129.267C64.0736 129.445 64.1683 129.659 64.1683 129.909C64.1683 130.159 64.0736 130.373 63.8842 130.551C63.6986 130.729 63.4751 130.818 63.2138 130.818ZM67.6697 135.75V141H66.3288V132.273H67.6243V133.636H67.7379C67.9425 133.193 68.2531 132.837 68.6697 132.568C69.0864 132.295 69.6243 132.159 70.2834 132.159C70.8743 132.159 71.3913 132.28 71.8345 132.523C72.2777 132.761 72.6224 133.125 72.8686 133.614C73.1148 134.098 73.2379 134.712 73.2379 135.455V141H71.897V135.545C71.897 134.86 71.719 134.326 71.3629 133.943C71.0069 133.557 70.5182 133.364 69.897 133.364C69.469 133.364 69.0864 133.456 68.7493 133.642C68.416 133.828 68.1527 134.098 67.9595 134.455C67.7663 134.811 67.6697 135.242 67.6697 135.75ZM79.2109 144.455C78.5632 144.455 78.0064 144.371 77.5405 144.205C77.0746 144.042 76.6863 143.826 76.3757 143.557C76.0689 143.292 75.8246 143.008 75.6428 142.705L76.7109 141.955C76.8321 142.114 76.9856 142.295 77.1712 142.5C77.3568 142.708 77.6106 142.888 77.9325 143.04C78.2583 143.195 78.6844 143.273 79.2109 143.273C79.9155 143.273 80.4969 143.102 80.9553 142.761C81.4136 142.42 81.6428 141.886 81.6428 141.159V139.386H81.5291C81.4306 139.545 81.2905 139.742 81.1087 139.977C80.9306 140.208 80.6731 140.415 80.3359 140.597C80.0026 140.775 79.5518 140.864 78.9837 140.864C78.2791 140.864 77.6465 140.697 77.0859 140.364C76.5291 140.03 76.0878 139.545 75.7621 138.909C75.4401 138.273 75.2791 137.5 75.2791 136.591C75.2791 135.697 75.4363 134.919 75.7507 134.256C76.0651 133.589 76.5026 133.074 77.0632 132.71C77.6238 132.343 78.2715 132.159 79.0064 132.159C79.5746 132.159 80.0253 132.254 80.3587 132.443C80.6958 132.629 80.9534 132.841 81.1314 133.08C81.3132 133.314 81.4534 133.508 81.5518 133.659H81.6882V132.273H82.9837V141.25C82.9837 142 82.8132 142.61 82.4723 143.08C82.1352 143.553 81.6806 143.9 81.1087 144.119C80.5405 144.343 79.9079 144.455 79.2109 144.455ZM79.1655 139.659C79.7034 139.659 80.1579 139.536 80.5291 139.29C80.9003 139.044 81.1825 138.689 81.3757 138.227C81.5689 137.765 81.6655 137.212 81.6655 136.568C81.6655 135.939 81.5708 135.384 81.3814 134.903C81.192 134.422 80.9117 134.045 80.5405 133.773C80.1693 133.5 79.7109 133.364 79.1655 133.364C78.5973 133.364 78.1238 133.508 77.745 133.795C77.37 134.083 77.0878 134.47 76.8984 134.955C76.7128 135.439 76.62 135.977 76.62 136.568C76.62 137.174 76.7147 137.71 76.9041 138.176C77.0973 138.638 77.3814 139.002 77.7564 139.267C78.1352 139.528 78.6049 139.659 79.1655 139.659ZM93.5973 141.182C92.7564 141.182 92.031 140.996 91.4212 140.625C90.8151 140.25 90.3473 139.727 90.0178 139.057C89.692 138.383 89.5291 137.598 89.5291 136.705C89.5291 135.811 89.692 135.023 90.0178 134.341C90.3473 133.655 90.8056 133.121 91.3928 132.739C91.9837 132.352 92.6731 132.159 93.4609 132.159C93.9155 132.159 94.3643 132.235 94.8075 132.386C95.2507 132.538 95.6541 132.784 96.0178 133.125C96.3814 133.462 96.6712 133.909 96.8871 134.466C97.103 135.023 97.2109 135.708 97.2109 136.523V137.091H90.4837V135.932H95.8473C95.8473 135.439 95.7488 135 95.5518 134.614C95.3587 134.227 95.0821 133.922 94.7223 133.699C94.3662 133.475 93.9458 133.364 93.4609 133.364C92.9268 133.364 92.4647 133.496 92.0746 133.761C91.6882 134.023 91.3909 134.364 91.1825 134.784C90.9742 135.205 90.87 135.655 90.87 136.136V136.909C90.87 137.568 90.9837 138.127 91.2109 138.585C91.442 139.04 91.7621 139.386 92.1712 139.625C92.5803 139.86 93.0556 139.977 93.5973 139.977C93.9496 139.977 94.2678 139.928 94.5518 139.83C94.8397 139.727 95.0878 139.576 95.2962 139.375C95.5045 139.17 95.6655 138.917 95.7791 138.614L97.0746 138.977C96.9382 139.417 96.709 139.803 96.3871 140.136C96.0651 140.466 95.6674 140.723 95.1939 140.909C94.7204 141.091 94.1882 141.182 93.5973 141.182ZM99.2507 129.364H100.592V138.727C100.592 139.152 100.639 139.449 100.734 139.619C100.828 139.79 101.023 139.871 101.319 139.864C101.478 139.856 101.595 139.845 101.671 139.83C101.751 139.811 101.823 139.792 101.887 139.773L102.16 140.932C102.042 140.966 101.895 140.996 101.717 141.023C101.539 141.053 101.353 141.068 101.16 141.068C100.523 141.068 100.046 140.894 99.728 140.545C99.4098 140.197 99.2507 139.712 99.2507 139.091V129.364ZM103.391 141V132.273H104.732V141H103.391ZM104.073 130.818C103.812 130.818 103.586 130.729 103.397 130.551C103.211 130.373 103.119 130.159 103.119 129.909C103.119 129.659 103.211 129.445 103.397 129.267C103.586 129.089 103.812 129 104.073 129C104.335 129 104.558 129.089 104.744 129.267C104.933 129.445 105.028 129.659 105.028 129.909C105.028 130.159 104.933 130.373 104.744 130.551C104.558 130.729 104.335 130.818 104.073 130.818ZM110.984 132.273V133.409H106.461V132.273H110.984ZM107.779 130.182H109.12V138.5C109.12 138.879 109.175 139.163 109.285 139.352C109.398 139.538 109.542 139.663 109.717 139.727C109.895 139.788 110.082 139.818 110.279 139.818C110.427 139.818 110.548 139.811 110.643 139.795C110.737 139.777 110.813 139.761 110.87 139.75L111.143 140.955C111.052 140.989 110.925 141.023 110.762 141.057C110.599 141.095 110.393 141.114 110.143 141.114C109.764 141.114 109.393 141.032 109.029 140.869C108.669 140.706 108.37 140.458 108.131 140.125C107.897 139.792 107.779 139.371 107.779 138.864V130.182ZM113.978 141.091C113.698 141.091 113.457 140.991 113.256 140.79C113.056 140.589 112.955 140.348 112.955 140.068C112.955 139.788 113.056 139.547 113.256 139.347C113.457 139.146 113.698 139.045 113.978 139.045C114.258 139.045 114.499 139.146 114.7 139.347C114.9 139.547 115.001 139.788 115.001 140.068C115.001 140.254 114.953 140.424 114.859 140.58C114.768 140.735 114.645 140.86 114.489 140.955C114.338 141.045 114.167 141.091 113.978 141.091ZM128.452 132.273C128.384 131.697 128.108 131.25 127.623 130.932C127.138 130.614 126.543 130.455 125.839 130.455C125.324 130.455 124.873 130.538 124.487 130.705C124.104 130.871 123.805 131.1 123.589 131.392C123.377 131.684 123.271 132.015 123.271 132.386C123.271 132.697 123.344 132.964 123.492 133.188C123.644 133.407 123.837 133.591 124.072 133.739C124.307 133.883 124.553 134.002 124.81 134.097C125.068 134.187 125.305 134.261 125.521 134.318L126.702 134.636C127.005 134.716 127.343 134.826 127.714 134.966C128.089 135.106 128.447 135.297 128.788 135.54C129.132 135.778 129.416 136.085 129.64 136.46C129.863 136.835 129.975 137.295 129.975 137.841C129.975 138.47 129.81 139.038 129.481 139.545C129.155 140.053 128.678 140.456 128.049 140.756C127.424 141.055 126.665 141.205 125.771 141.205C124.937 141.205 124.216 141.07 123.606 140.801C123 140.532 122.522 140.157 122.174 139.676C121.829 139.195 121.634 138.636 121.589 138H123.043C123.081 138.439 123.229 138.803 123.487 139.091C123.748 139.375 124.077 139.587 124.475 139.727C124.877 139.864 125.308 139.932 125.771 139.932C126.308 139.932 126.791 139.845 127.219 139.67C127.647 139.492 127.987 139.246 128.237 138.932C128.487 138.614 128.612 138.242 128.612 137.818C128.612 137.432 128.504 137.117 128.288 136.875C128.072 136.633 127.788 136.436 127.435 136.284C127.083 136.133 126.702 136 126.293 135.886L124.862 135.477C123.952 135.216 123.233 134.843 122.702 134.358C122.172 133.873 121.907 133.239 121.907 132.455C121.907 131.803 122.083 131.235 122.435 130.75C122.791 130.261 123.269 129.883 123.867 129.614C124.469 129.341 125.142 129.205 125.884 129.205C126.634 129.205 127.301 129.339 127.884 129.608C128.468 129.873 128.93 130.237 129.271 130.699C129.615 131.161 129.797 131.686 129.816 132.273H128.452ZM135.769 141.182C134.928 141.182 134.203 140.996 133.593 140.625C132.987 140.25 132.519 139.727 132.19 139.057C131.864 138.383 131.701 137.598 131.701 136.705C131.701 135.811 131.864 135.023 132.19 134.341C132.519 133.655 132.978 133.121 133.565 132.739C134.156 132.352 134.845 132.159 135.633 132.159C136.087 132.159 136.536 132.235 136.979 132.386C137.423 132.538 137.826 132.784 138.19 133.125C138.553 133.462 138.843 133.909 139.059 134.466C139.275 135.023 139.383 135.708 139.383 136.523V137.091H132.656V135.932H138.019C138.019 135.439 137.921 135 137.724 134.614C137.531 134.227 137.254 133.922 136.894 133.699C136.538 133.475 136.118 133.364 135.633 133.364C135.099 133.364 134.637 133.496 134.246 133.761C133.86 134.023 133.563 134.364 133.354 134.784C133.146 135.205 133.042 135.655 133.042 136.136V136.909C133.042 137.568 133.156 138.127 133.383 138.585C133.614 139.04 133.934 139.386 134.343 139.625C134.752 139.86 135.228 139.977 135.769 139.977C136.121 139.977 136.44 139.928 136.724 139.83C137.012 139.727 137.26 139.576 137.468 139.375C137.676 139.17 137.837 138.917 137.951 138.614L139.246 138.977C139.11 139.417 138.881 139.803 138.559 140.136C138.237 140.466 137.839 140.723 137.366 140.909C136.892 141.091 136.36 141.182 135.769 141.182ZM144.718 141.182C143.991 141.182 143.349 140.998 142.792 140.631C142.235 140.259 141.799 139.737 141.485 139.062C141.171 138.384 141.013 137.583 141.013 136.659C141.013 135.742 141.171 134.947 141.485 134.273C141.799 133.598 142.237 133.078 142.798 132.71C143.358 132.343 144.006 132.159 144.741 132.159C145.309 132.159 145.758 132.254 146.087 132.443C146.421 132.629 146.674 132.841 146.849 133.08C147.027 133.314 147.165 133.508 147.263 133.659H147.377V129.364H148.718V141H147.423V139.659H147.263C147.165 139.818 147.025 140.019 146.843 140.261C146.661 140.5 146.402 140.714 146.065 140.903C145.728 141.089 145.279 141.182 144.718 141.182ZM144.9 139.977C145.438 139.977 145.892 139.837 146.263 139.557C146.635 139.273 146.917 138.881 147.11 138.381C147.303 137.877 147.4 137.295 147.4 136.636C147.4 135.985 147.305 135.415 147.116 134.926C146.926 134.434 146.646 134.051 146.275 133.778C145.904 133.502 145.445 133.364 144.9 133.364C144.332 133.364 143.858 133.509 143.479 133.801C143.104 134.089 142.822 134.481 142.633 134.977C142.447 135.47 142.354 136.023 142.354 136.636C142.354 137.258 142.449 137.822 142.638 138.33C142.832 138.833 143.116 139.235 143.491 139.534C143.87 139.83 144.339 139.977 144.9 139.977ZM159.519 141.182C158.678 141.182 157.953 140.996 157.343 140.625C156.737 140.25 156.269 139.727 155.94 139.057C155.614 138.383 155.451 137.598 155.451 136.705C155.451 135.811 155.614 135.023 155.94 134.341C156.269 133.655 156.728 133.121 157.315 132.739C157.906 132.352 158.595 132.159 159.383 132.159C159.837 132.159 160.286 132.235 160.729 132.386C161.173 132.538 161.576 132.784 161.94 133.125C162.303 133.462 162.593 133.909 162.809 134.466C163.025 135.023 163.133 135.708 163.133 136.523V137.091H156.406V135.932H161.769C161.769 135.439 161.671 135 161.474 134.614C161.281 134.227 161.004 133.922 160.644 133.699C160.288 133.475 159.868 133.364 159.383 133.364C158.849 133.364 158.387 133.496 157.996 133.761C157.61 134.023 157.313 134.364 157.104 134.784C156.896 135.205 156.792 135.655 156.792 136.136V136.909C156.792 137.568 156.906 138.127 157.133 138.585C157.364 139.04 157.684 139.386 158.093 139.625C158.502 139.86 158.978 139.977 159.519 139.977C159.871 139.977 160.19 139.928 160.474 139.83C160.762 139.727 161.01 139.576 161.218 139.375C161.426 139.17 161.587 138.917 161.701 138.614L162.996 138.977C162.86 139.417 162.631 139.803 162.309 140.136C161.987 140.466 161.589 140.723 161.116 140.909C160.642 141.091 160.11 141.182 159.519 141.182ZM165.173 141V132.273H166.468V133.591H166.559C166.714 133.159 167 132.809 167.417 132.54C167.834 132.271 168.305 132.136 168.832 132.136C169.074 132.136 169.286 132.165 169.468 132.222C169.65 132.278 169.809 132.356 169.945 132.455L169.491 133.591C169.396 133.542 169.284 133.504 169.156 133.477C169.031 133.447 168.885 133.432 168.718 133.432C168.294 133.432 167.915 133.521 167.582 133.699C167.252 133.877 166.991 134.119 166.798 134.426C166.608 134.733 166.513 135.083 166.513 135.477V141H165.173ZM174.343 141.182C173.616 141.182 172.974 140.998 172.417 140.631C171.86 140.259 171.424 139.737 171.11 139.062C170.796 138.384 170.638 137.583 170.638 136.659C170.638 135.742 170.796 134.947 171.11 134.273C171.424 133.598 171.862 133.078 172.423 132.71C172.983 132.343 173.631 132.159 174.366 132.159C174.934 132.159 175.383 132.254 175.712 132.443C176.046 132.629 176.299 132.841 176.474 133.08C176.652 133.314 176.79 133.508 176.888 133.659H177.002V132.273H178.343V141H177.048V139.659H176.888C176.79 139.818 176.65 140.019 176.468 140.261C176.286 140.5 176.027 140.714 175.69 140.903C175.353 141.089 174.904 141.182 174.343 141.182ZM174.525 139.977C175.063 139.977 175.517 139.837 175.888 139.557C176.26 139.273 176.542 138.881 176.735 138.381C176.928 137.877 177.025 137.295 177.025 136.636C177.025 135.985 176.93 135.415 176.741 134.926C176.551 134.434 176.271 134.051 175.9 133.778C175.529 133.502 175.07 133.364 174.525 133.364C173.957 133.364 173.483 133.509 173.104 133.801C172.729 134.089 172.447 134.481 172.258 134.977C172.072 135.47 171.979 136.023 171.979 136.636C171.979 137.258 172.074 137.822 172.263 138.33C172.457 138.833 172.741 139.235 173.116 139.534C173.495 139.83 173.964 139.977 174.525 139.977ZM184.781 132.273V133.409H180.258V132.273H184.781ZM181.576 130.182H182.917V138.5C182.917 138.879 182.972 139.163 183.082 139.352C183.195 139.538 183.339 139.663 183.513 139.727C183.692 139.788 183.879 139.818 184.076 139.818C184.224 139.818 184.345 139.811 184.44 139.795C184.534 139.777 184.61 139.761 184.667 139.75L184.94 140.955C184.849 140.989 184.722 141.023 184.559 141.057C184.396 141.095 184.19 141.114 183.94 141.114C183.561 141.114 183.19 141.032 182.826 140.869C182.466 140.706 182.167 140.458 181.928 140.125C181.693 139.792 181.576 139.371 181.576 138.864V130.182ZM192.638 135.75V141H191.298V132.273H192.593V133.636H192.707C192.911 133.193 193.222 132.837 193.638 132.568C194.055 132.295 194.593 132.159 195.252 132.159C195.843 132.159 196.36 132.28 196.803 132.523C197.246 132.761 197.591 133.125 197.837 133.614C198.084 134.098 198.207 134.712 198.207 135.455V141H196.866V135.545C196.866 134.86 196.688 134.326 196.332 133.943C195.976 133.557 195.487 133.364 194.866 133.364C194.438 133.364 194.055 133.456 193.718 133.642C193.385 133.828 193.121 134.098 192.928 134.455C192.735 134.811 192.638 135.242 192.638 135.75ZM200.657 141V132.273H201.998V141H200.657ZM201.339 130.818C201.077 130.818 200.852 130.729 200.663 130.551C200.477 130.373 200.384 130.159 200.384 129.909C200.384 129.659 200.477 129.445 200.663 129.267C200.852 129.089 201.077 129 201.339 129C201.6 129 201.824 129.089 202.009 129.267C202.199 129.445 202.293 129.659 202.293 129.909C202.293 130.159 202.199 130.373 202.009 130.551C201.824 130.729 201.6 130.818 201.339 130.818ZM204.636 141V129.364H205.977V133.659H206.09C206.189 133.508 206.325 133.314 206.499 133.08C206.677 132.841 206.931 132.629 207.261 132.443C207.594 132.254 208.045 132.159 208.613 132.159C209.348 132.159 209.996 132.343 210.556 132.71C211.117 133.078 211.554 133.598 211.869 134.273C212.183 134.947 212.34 135.742 212.34 136.659C212.34 137.583 212.183 138.384 211.869 139.062C211.554 139.737 211.119 140.259 210.562 140.631C210.005 140.998 209.363 141.182 208.636 141.182C208.075 141.182 207.626 141.089 207.289 140.903C206.952 140.714 206.692 140.5 206.511 140.261C206.329 140.019 206.189 139.818 206.09 139.659H205.931V141H204.636ZM205.954 136.636C205.954 137.295 206.05 137.877 206.244 138.381C206.437 138.881 206.719 139.273 207.09 139.557C207.461 139.837 207.916 139.977 208.454 139.977C209.014 139.977 209.482 139.83 209.857 139.534C210.236 139.235 210.52 138.833 210.71 138.33C210.903 137.822 210.999 137.258 210.999 136.636C210.999 136.023 210.905 135.47 210.715 134.977C210.53 134.481 210.247 134.089 209.869 133.801C209.494 133.509 209.022 133.364 208.454 133.364C207.908 133.364 207.45 133.502 207.079 133.778C206.708 134.051 206.427 134.434 206.238 134.926C206.049 135.415 205.954 135.985 205.954 136.636ZM215.732 135.75V141H214.391V129.364H215.732V133.636H215.846C216.05 133.186 216.357 132.828 216.766 132.562C217.179 132.294 217.728 132.159 218.414 132.159C219.009 132.159 219.53 132.278 219.977 132.517C220.424 132.752 220.77 133.114 221.016 133.602C221.266 134.087 221.391 134.705 221.391 135.455V141H220.05V135.545C220.05 134.852 219.871 134.316 219.511 133.938C219.155 133.555 218.66 133.364 218.028 133.364C217.588 133.364 217.194 133.456 216.846 133.642C216.501 133.828 216.228 134.098 216.028 134.455C215.831 134.811 215.732 135.242 215.732 135.75ZM232.14 132.273V133.409H227.617V132.273H232.14ZM228.935 130.182H230.276V138.5C230.276 138.879 230.331 139.163 230.441 139.352C230.555 139.538 230.699 139.663 230.873 139.727C231.051 139.788 231.238 139.818 231.435 139.818C231.583 139.818 231.704 139.811 231.799 139.795C231.894 139.777 231.969 139.761 232.026 139.75L232.299 140.955C232.208 140.989 232.081 141.023 231.918 141.057C231.755 141.095 231.549 141.114 231.299 141.114C230.92 141.114 230.549 141.032 230.185 140.869C229.826 140.706 229.526 140.458 229.288 140.125C229.053 139.792 228.935 139.371 228.935 138.864V130.182ZM234.157 141V132.273H235.452V133.591H235.543C235.699 133.159 235.985 132.809 236.401 132.54C236.818 132.271 237.29 132.136 237.816 132.136C238.058 132.136 238.271 132.165 238.452 132.222C238.634 132.278 238.793 132.356 238.93 132.455L238.475 133.591C238.38 133.542 238.269 133.504 238.14 133.477C238.015 133.447 237.869 133.432 237.702 133.432C237.278 133.432 236.899 133.521 236.566 133.699C236.237 133.877 235.975 134.119 235.782 134.426C235.593 134.733 235.498 135.083 235.498 135.477V141H234.157ZM240.298 141V132.273H241.638V141H240.298ZM240.979 130.818C240.718 130.818 240.493 130.729 240.303 130.551C240.118 130.373 240.025 130.159 240.025 129.909C240.025 129.659 240.118 129.445 240.303 129.267C240.493 129.089 240.718 129 240.979 129C241.241 129 241.464 129.089 241.65 129.267C241.839 129.445 241.934 129.659 241.934 129.909C241.934 130.159 241.839 130.373 241.65 130.551C241.464 130.729 241.241 130.818 240.979 130.818ZM250.276 134.227L249.072 134.568C248.996 134.367 248.884 134.172 248.737 133.983C248.593 133.79 248.396 133.631 248.146 133.506C247.896 133.381 247.576 133.318 247.185 133.318C246.651 133.318 246.206 133.441 245.85 133.688C245.498 133.93 245.322 134.239 245.322 134.614C245.322 134.947 245.443 135.21 245.685 135.403C245.928 135.597 246.307 135.758 246.822 135.886L248.117 136.205C248.897 136.394 249.479 136.684 249.862 137.074C250.244 137.46 250.435 137.958 250.435 138.568C250.435 139.068 250.291 139.515 250.004 139.909C249.719 140.303 249.322 140.614 248.81 140.841C248.299 141.068 247.704 141.182 247.026 141.182C246.136 141.182 245.399 140.989 244.816 140.602C244.233 140.216 243.863 139.652 243.708 138.909L244.981 138.591C245.102 139.061 245.331 139.413 245.668 139.648C246.009 139.883 246.454 140 247.004 140C247.629 140 248.125 139.867 248.492 139.602C248.863 139.333 249.049 139.011 249.049 138.636C249.049 138.333 248.943 138.08 248.731 137.875C248.519 137.667 248.193 137.511 247.754 137.409L246.299 137.068C245.5 136.879 244.913 136.585 244.538 136.188C244.166 135.786 243.981 135.284 243.981 134.682C243.981 134.189 244.119 133.754 244.396 133.375C244.676 132.996 245.057 132.699 245.538 132.483C246.022 132.267 246.572 132.159 247.185 132.159C248.049 132.159 248.727 132.348 249.219 132.727C249.716 133.106 250.068 133.606 250.276 134.227ZM256.249 132.273V133.409H251.727V132.273H256.249ZM253.045 130.182H254.386V138.5C254.386 138.879 254.441 139.163 254.55 139.352C254.664 139.538 254.808 139.663 254.982 139.727C255.16 139.788 255.348 139.818 255.545 139.818C255.692 139.818 255.814 139.811 255.908 139.795C256.003 139.777 256.079 139.761 256.136 139.75L256.408 140.955C256.317 140.989 256.191 141.023 256.028 141.057C255.865 141.095 255.658 141.114 255.408 141.114C255.03 141.114 254.658 141.032 254.295 140.869C253.935 140.706 253.636 140.458 253.397 140.125C253.162 139.792 253.045 139.371 253.045 138.864V130.182ZM258.266 141V132.273H259.607V141H258.266ZM258.948 130.818C258.687 130.818 258.461 130.729 258.272 130.551C258.086 130.373 257.994 130.159 257.994 129.909C257.994 129.659 258.086 129.445 258.272 129.267C258.461 129.089 258.687 129 258.948 129C259.21 129 259.433 129.089 259.619 129.267C259.808 129.445 259.903 129.659 259.903 129.909C259.903 130.159 259.808 130.373 259.619 130.551C259.433 130.729 259.21 130.818 258.948 130.818ZM268.018 144.273V139.659H267.904C267.806 139.818 267.665 140.019 267.484 140.261C267.302 140.5 267.042 140.714 266.705 140.903C266.368 141.089 265.919 141.182 265.359 141.182C264.631 141.182 263.989 140.998 263.433 140.631C262.876 140.259 262.44 139.737 262.126 139.062C261.811 138.384 261.654 137.583 261.654 136.659C261.654 135.742 261.811 134.947 262.126 134.273C262.44 133.598 262.878 133.078 263.438 132.71C263.999 132.343 264.647 132.159 265.381 132.159C265.95 132.159 266.398 132.254 266.728 132.443C267.061 132.629 267.315 132.841 267.489 133.08C267.667 133.314 267.806 133.508 267.904 133.659H268.063V132.273H269.359V144.273H268.018ZM265.54 139.977C266.078 139.977 266.533 139.837 266.904 139.557C267.275 139.273 267.558 138.881 267.751 138.381C267.944 137.877 268.04 137.295 268.04 136.636C268.04 135.985 267.946 135.415 267.756 134.926C267.567 134.434 267.287 134.051 266.915 133.778C266.544 133.502 266.086 133.364 265.54 133.364C264.972 133.364 264.499 133.509 264.12 133.801C263.745 134.089 263.463 134.481 263.273 134.977C263.088 135.47 262.995 136.023 262.995 136.636C262.995 137.258 263.09 137.822 263.279 138.33C263.472 138.833 263.756 139.235 264.131 139.534C264.51 139.83 264.98 139.977 265.54 139.977ZM277.313 137.432V132.273H278.654V141H277.313V139.523H277.222C277.018 139.966 276.7 140.343 276.268 140.653C275.836 140.96 275.29 141.114 274.631 141.114C274.086 141.114 273.601 140.994 273.177 140.756C272.753 140.513 272.419 140.15 272.177 139.665C271.934 139.176 271.813 138.561 271.813 137.818V132.273H273.154V137.727C273.154 138.364 273.332 138.871 273.688 139.25C274.048 139.629 274.506 139.818 275.063 139.818C275.397 139.818 275.736 139.733 276.08 139.562C276.429 139.392 276.72 139.131 276.955 138.778C277.194 138.426 277.313 137.977 277.313 137.432ZM284.769 141.182C283.928 141.182 283.203 140.996 282.593 140.625C281.987 140.25 281.519 139.727 281.19 139.057C280.864 138.383 280.701 137.598 280.701 136.705C280.701 135.811 280.864 135.023 281.19 134.341C281.519 133.655 281.978 133.121 282.565 132.739C283.156 132.352 283.845 132.159 284.633 132.159C285.087 132.159 285.536 132.235 285.979 132.386C286.423 132.538 286.826 132.784 287.19 133.125C287.553 133.462 287.843 133.909 288.059 134.466C288.275 135.023 288.383 135.708 288.383 136.523V137.091H281.656V135.932H287.019C287.019 135.439 286.921 135 286.724 134.614C286.531 134.227 286.254 133.922 285.894 133.699C285.538 133.475 285.118 133.364 284.633 133.364C284.099 133.364 283.637 133.496 283.246 133.761C282.86 134.023 282.563 134.364 282.354 134.784C282.146 135.205 282.042 135.655 282.042 136.136V136.909C282.042 137.568 282.156 138.127 282.383 138.585C282.614 139.04 282.934 139.386 283.343 139.625C283.752 139.86 284.228 139.977 284.769 139.977C285.121 139.977 285.44 139.928 285.724 139.83C286.012 139.727 286.26 139.576 286.468 139.375C286.676 139.17 286.837 138.917 286.951 138.614L288.246 138.977C288.11 139.417 287.881 139.803 287.559 140.136C287.237 140.466 286.839 140.723 286.366 140.909C285.892 141.091 285.36 141.182 284.769 141.182ZM294.923 141V132.273H296.263V141H294.923ZM295.604 130.818C295.343 130.818 295.118 130.729 294.928 130.551C294.743 130.373 294.65 130.159 294.65 129.909C294.65 129.659 294.743 129.445 294.928 129.267C295.118 129.089 295.343 129 295.604 129C295.866 129 296.089 129.089 296.275 129.267C296.464 129.445 296.559 129.659 296.559 129.909C296.559 130.159 296.464 130.373 296.275 130.551C296.089 130.729 295.866 130.818 295.604 130.818ZM298.719 144.273V132.273H300.015V133.659H300.174C300.272 133.508 300.409 133.314 300.583 133.08C300.761 132.841 301.015 132.629 301.344 132.443C301.678 132.254 302.129 132.159 302.697 132.159C303.432 132.159 304.079 132.343 304.64 132.71C305.201 133.078 305.638 133.598 305.952 134.273C306.267 134.947 306.424 135.742 306.424 136.659C306.424 137.583 306.267 138.384 305.952 139.062C305.638 139.737 305.202 140.259 304.646 140.631C304.089 140.998 303.447 141.182 302.719 141.182C302.159 141.182 301.71 141.089 301.373 140.903C301.036 140.714 300.776 140.5 300.594 140.261C300.413 140.019 300.272 139.818 300.174 139.659H300.06V144.273H298.719ZM300.038 136.636C300.038 137.295 300.134 137.877 300.327 138.381C300.521 138.881 300.803 139.273 301.174 139.557C301.545 139.837 302 139.977 302.538 139.977C303.098 139.977 303.566 139.83 303.941 139.534C304.32 139.235 304.604 138.833 304.793 138.33C304.987 137.822 305.083 137.258 305.083 136.636C305.083 136.023 304.988 135.47 304.799 134.977C304.613 134.481 304.331 134.089 303.952 133.801C303.577 133.509 303.106 133.364 302.538 133.364C301.992 133.364 301.534 133.502 301.163 133.778C300.791 134.051 300.511 134.434 300.322 134.926C300.132 135.415 300.038 135.985 300.038 136.636ZM314.651 134.227L313.447 134.568C313.371 134.367 313.259 134.172 313.112 133.983C312.968 133.79 312.771 133.631 312.521 133.506C312.271 133.381 311.951 133.318 311.56 133.318C311.026 133.318 310.581 133.441 310.225 133.688C309.873 133.93 309.697 134.239 309.697 134.614C309.697 134.947 309.818 135.21 310.06 135.403C310.303 135.597 310.682 135.758 311.197 135.886L312.492 136.205C313.272 136.394 313.854 136.684 314.237 137.074C314.619 137.46 314.81 137.958 314.81 138.568C314.81 139.068 314.666 139.515 314.379 139.909C314.094 140.303 313.697 140.614 313.185 140.841C312.674 141.068 312.079 141.182 311.401 141.182C310.511 141.182 309.774 140.989 309.191 140.602C308.608 140.216 308.238 139.652 308.083 138.909L309.356 138.591C309.477 139.061 309.706 139.413 310.043 139.648C310.384 139.883 310.829 140 311.379 140C312.004 140 312.5 139.867 312.867 139.602C313.238 139.333 313.424 139.011 313.424 138.636C313.424 138.333 313.318 138.08 313.106 137.875C312.894 137.667 312.568 137.511 312.129 137.409L310.674 137.068C309.875 136.879 309.288 136.585 308.913 136.188C308.541 135.786 308.356 135.284 308.356 134.682C308.356 134.189 308.494 133.754 308.771 133.375C309.051 132.996 309.432 132.699 309.913 132.483C310.397 132.267 310.947 132.159 311.56 132.159C312.424 132.159 313.102 132.348 313.594 132.727C314.091 133.106 314.443 133.606 314.651 134.227ZM322.329 137.432V132.273H323.67V141H322.329V139.523H322.238C322.033 139.966 321.715 140.343 321.283 140.653C320.852 140.96 320.306 141.114 319.647 141.114C319.102 141.114 318.617 140.994 318.192 140.756C317.768 140.513 317.435 140.15 317.192 139.665C316.95 139.176 316.829 138.561 316.829 137.818V132.273H318.17V137.727C318.17 138.364 318.348 138.871 318.704 139.25C319.064 139.629 319.522 139.818 320.079 139.818C320.412 139.818 320.751 139.733 321.096 139.562C321.444 139.392 321.736 139.131 321.971 138.778C322.21 138.426 322.329 137.977 322.329 137.432ZM326.126 141V132.273H327.421V133.636H327.535C327.717 133.17 328.01 132.809 328.415 132.551C328.821 132.29 329.308 132.159 329.876 132.159C330.451 132.159 330.931 132.29 331.313 132.551C331.7 132.809 332.001 133.17 332.217 133.636H332.308C332.531 133.186 332.866 132.828 333.313 132.562C333.76 132.294 334.296 132.159 334.921 132.159C335.701 132.159 336.34 132.403 336.836 132.892C337.332 133.377 337.58 134.133 337.58 135.159V141H336.239V135.159C336.239 134.515 336.063 134.055 335.711 133.778C335.359 133.502 334.944 133.364 334.467 133.364C333.853 133.364 333.378 133.549 333.04 133.92C332.703 134.288 332.535 134.754 332.535 135.318V141H331.171V135.023C331.171 134.527 331.01 134.127 330.688 133.824C330.366 133.517 329.951 133.364 329.444 133.364C329.095 133.364 328.77 133.456 328.467 133.642C328.167 133.828 327.925 134.085 327.739 134.415C327.558 134.741 327.467 135.117 327.467 135.545V141H326.126ZM341.009 141.091C340.729 141.091 340.488 140.991 340.288 140.79C340.087 140.589 339.987 140.348 339.987 140.068C339.987 139.788 340.087 139.547 340.288 139.347C340.488 139.146 340.729 139.045 341.009 139.045C341.29 139.045 341.53 139.146 341.731 139.347C341.932 139.547 342.032 139.788 342.032 140.068C342.032 140.254 341.985 140.424 341.89 140.58C341.799 140.735 341.676 140.86 341.521 140.955C341.369 141.045 341.199 141.091 341.009 141.091Z" fill="#18191F"/>
</g>
<defs>
<clipPath id="clip0_158_417">
<rect width="350" height="92" fill="white" transform="translate(0 56)"/>
</clipPath>
</defs>
</svg>
