<svg width="96" height="30" viewBox="0 0 96 30" fill="none" xmlns="http://www.w3.org/2000/svg">
<g clip-path="url(#clip0_102_31)">
<path d="M70.9307 28.2208L78.7797 19.5615L70.9307 10.901H79.2122L83.0997 15.1077L86.8431 10.901H94.8357L87.024 19.5257L94.9429 28.2208H86.6274L82.7752 23.9795L78.9593 28.2208H70.9307Z" fill="#FF6600"/>
<path d="M70.9306 7.01853H62.041V10.901H70.9306V16.7522H62.041V22.1229H70.9306V28.2208H55.5071V0.9375H70.9306V7.01853Z" fill="#FF6600"/>
<path d="M49.0009 0.9375V12.1031H48.9293C47.4889 10.4775 45.6892 9.91259 43.601 9.91259C39.3236 9.91259 36.1015 12.7677 34.9704 16.5425C33.6806 12.3832 30.3542 9.83464 25.4216 9.83464C21.4158 9.83464 18.2527 11.6001 16.6019 14.4769V10.9014H8.32203V7.01933H17.3577V0.9375H0.941162V28.2212H8.32203V16.7522H15.6788C15.4594 17.5947 15.3424 18.4967 15.3424 19.4486C15.3424 25.1399 19.7704 29.1332 25.4216 29.1332C30.1737 29.1332 33.3054 26.9427 34.9618 22.9489H28.6367C27.7811 24.1487 27.1321 24.505 25.4216 24.505C23.4381 24.505 21.7281 22.8059 21.7281 20.7917H34.6075C35.166 25.3122 38.7523 29.2108 43.6738 29.2108C45.7968 29.2108 47.7406 28.1854 48.9293 26.4541H49.0009V28.2204H55.5073V0.9375H49.0009ZM21.9335 16.8337C22.3439 15.1008 23.7127 13.9682 25.4216 13.9682C27.3027 13.9682 28.6019 15.0659 28.9436 16.8337C29.0877 16.8337 21.9335 16.8337 21.9335 16.8337ZM45.0525 24.0667C42.6541 24.0667 41.1638 21.8725 41.1638 19.5816C41.1638 17.1327 42.4601 14.7778 45.0525 14.7778C47.7405 14.7778 48.8114 17.1327 48.8114 19.5816C48.811 21.9039 47.6763 24.0667 45.0525 24.0667Z" fill="#652C8F"/>
</g>
<defs>
<clipPath id="clip0_102_31">
<rect width="94.1176" height="28.125" fill="white" transform="translate(0.941162 0.9375)"/>
</clipPath>
</defs>
</svg>
